<?xml version="1.0" encoding="utf-8"?>
<svg version="1.1" id="Layer_1" xmlns="http://www.w3.org/2000/svg" xmlns:xlink="http://www.w3.org/1999/xlink" x="0px" y="0px"
	 viewBox="0 0 2664.539 980.87" enable-background="new 0 0 2664.539 980.87" xml:space="preserve">
<path d="M2567.013,428.697c-5.11-1.015-9.191-8.629-22.209-11.584c-7.939-1.803-11.877-0.486-10.489,8.646
	c-3.699-1.22-31.925-13.91-27.814,11.328c0.108,0.665,0.014,1.364,0.014,2.172c-9.079,2.637-8.621-1.077-11.726,9.969
	c-1.882,6.696,1.541,21.345-0.948,23.722c-3.878,0.9-2.403-6.623-8.285-4.789c-2.389,0.745-3.221,2.727-3.447,5.014
	c-0.292,2.988,3.923,5.931,0.707,7.837c-2.18,1.292-3.227-2.243-5.145-3.097c-6.128-2.727-4.867-4.131-7.719-7.062
	c-3.57,3.616-7.088-1.599-10.673-0.051c-4.284,1.849-4.68,5.822-7.667,10.107c-7.6-4.772-10.73-4.338-16.845,2.457
	c2.119,2.32,5.064,2.253,7.79,2.851c53.307,11.69,121.396,29.026,163.523,59.544c2.109,1.528,4.501,2.76,6.102,5.143
	c-2.43,2.312-22.522-5.637-25.215-6.724c-24.55-9.909-61.638-17.769-86.01-7.463c-14.745,6.235-1.644,15.518-2,19.435
	c-18.77-4.301-60.67-16.766-91.453,1.505c-13.813,8.199-17.398,17.964-11.929,33.334c-46.251,1.676-45.482,8.977-49.105,31.282
	c-3.88,0.556-8.06-0.803-11.889,0.969c-0.054,0.394-0.318,1.007-0.138,1.194c13.928,14.453-0.707,24.516,2.602,33.79
	c3.304,9.26-5.559,14.137-12.826,6.582c-3.309-3.438-0.587-10.453-17.6-7.674c-6.94,1.134-19.36,9.789-13.869,17.486
	c2.917,4.088,4.891,13.611-2.089,14.018c-8.978,0.523-8.676-6.205-19.862-7.536c-26.018-3.095-16.726-21.523-24.74-14.388
	c-8.729,7.772-2.452,10.744-17.378,4.673c-26.344-10.717-46.343,23.772-52.645,27.938c-25.583-30.576-91.215,16.223-113.732,65.569
	c-10.066,22.04-4.671-12.215-32.645,3.878c-57.696,33.191-64.549,80.725-68.926,95.429c-0.773,2.598-0.472,6.956-3.763,7.041
	c-3.943,0.103-3.799-4.479-4.492-7.296c-20.124-81.762,125.32-232.602,201.706-319.088c0.8,4.251,1.157,7.305,1.964,10.235
	c6.948,25.219,32.176,27.381,57.333,18.364c6.69-2.398,4.602-5.459,7.256-15.96c2.205-8.721-15.684-2.165-15.913-21.991
	c-0.134-11.628,19.982-13.335,24.076-3.573c1.659,3.956,3.591,3.086,6.768,1.917c4.978-1.831,7.179-4.493,7.1-10.054
	c-0.121-8.507,3.468-20.295,11.281-20.163c6.3,0.107,12.615,13.711,7.836,24.56c-1.464,3.324-0.404,4.611,2.245,6.273
	c11.95,7.501,12.039,7.592,23.07-1.566c21.247-17.637,16.926-43.792,2.455-62.665c2.131-5.18,99.323,5.506,113.823,8.759
	c3.981,0.893,5.989-0.083,7.427-4.274c0.096-0.279,21.874-56.777,21.874-56.777c3.13,1.251,4.793,12.225,14.26,11.339
	c2.693-0.252,5.741-0.666,6.379-3.703c0.558-2.659,1.039-5.843-2.129-7.773c-6.728-4.1-6.105-16.083,1.786-8.776
	c2.095,1.941,4-0.376,3.453-2.112c-4.034-12.814,4.256-13.212,5.695,0.158c0.349,3.247,5.086,7.885,7.824,3.43
	c6.155-10.019-1.008-20.237-6.095-30.078c28.173-2.058,94.505,27.159,102.965,48.486L2567.013,428.697z"/>
<path d="M1437.789,178.206c-0.961,12.884-7.141,23.659-11.412,35.832c41.778-3.16,92.224-25.788,111.605-64.081
	c23.852,53.245,150.099,127.113,60.713,173.927c-2.056-12.866-2.947-22.47-8.804-33.009c-13.653-24.565-41.626-13.134-63.134,4.953
	c-13.272,11.161-12.32,14.025-15.928,13.788c-10.856-39.05-39.335-65.087-79.863-47.553c-2.155-0.832-1.704-2.774-2.043-4.336
	c-1.499-6.897-5.188-12.364-10.701-16.701c-4.013-3.157-4.735,0.533-7.348,5.61c-4.551,8.84-11.626,14.097-21.665,14.781
	c-21.031,1.433-33.126-6.549-36.269-26.446c-1.969-12.465,1.575-16.321-6.153-19.738c-25.451-11.254-50.925-14.141-76.931-0.975
	c-3.013-2.994-12.404-71.257-62.98,11.27c-21.237-31.286-41.893-67.45-61.548-45.807c-5.584,6.149-8.739,13.658-12.902,22.382
	c-2.666-0.422-2.154-2.562-2.563-3.997c-15.717-55.066,25.065-109.762,66.733-112.911c36.717-2.774,46.413-0.015,60.49-18.004
	c2.367,0.564,2.293,2.893,3.028,4.493c19.189,41.765,47.806,96.069,89.85,115.47c13.011,6.004,3.644-2.882,20.168-20.834
	c2.769-3.009,5.801-5.737,10.364-7.012c1.499,8.408,3.638,16.53,3.714,24.902c0.033,3.644,1.314,5.187,4.634,5.94
	c10.594,2.404,18.281,7.488,25.254-0.951C1419.784,182.315,1428.209,179.604,1437.789,178.206z"/>
<path d="M284.813,186.921c-10.449-6.056-22.384-0.996-32.778,5.956c-2.843,1.901-4.328,1.405-5.19-1.777
	c-2.921-10.785-9.374-20.893-36.873-24.404c-7.928-1.012-15.326,1.028-22.111,4.545c-2.083-0.619-2.134-2.294-2.338-3.567
	c-4.245-26.59-36.442-42.329-58.99-42.324c-2.385,0.001-4.828-0.176-6.975-1.516c3.535-5.971,3.067-5.643-0.783-11.144
	c-8.779-12.544-36.86-29.024-62.639-23.941c-15.569,3.07,16.55-31.126,104.473-22.078c13.57,1.396,22.359,0.674,39.806,9.48
	c48.763,24.613,28.533,0.309,31.917-2.755c1.365-1.236,2.778-0.19,3.989,0.418c27.068,13.595,10.395,44.653,35.629,67.422
	c6.792,6.129,14.836,19.547,27.205,21.772c6.102,1.098,7.032,0.084,5.144-5.751c-8.918-27.564-9.671-26.597-7.73-27.998
	c2.122-1.533,4.05-0.763,5.757,1.019c5.824,6.079,13.511,9.899,18.804,16.85c4.919,6.46,13.253,4.662,17.027-2.754
	c2.078-4.082,3.511-8.478,6.104-12.315c4.035-5.971,13.292-8.759,14.699-2.095c3.681,17.429-15.248,29.274-10.932,43.029
	c1.563,4.983,2.331,5.446,7.135,3.652c42.802-15.983,9.999-69.577,67.377-93.923c0.361-0.153,0.885,0.078,1.358,0.132
	c2.316,3.825-7.067,11.636,4.145,13.378c54.895,8.528,106.498-39.911,163.373-11.861c2.995,1.477,6.077,2.956,6.687,7.186
	c-4.173,2.68-43.281-4.385-74.289,34.086c-6.771,8.401-1.9,11.694-1.035,15.097c2.467,9.705-6.288,2.721-30.618,6.513
	c-17.638,2.749-21.424,3.449-24.644,8.222c-14.319,21.227-7.171,23.08-8.947,27.171c-0.763,1.088-1.756,0.691-2.614,0.467
	c-19.828-5.158-37.681,0.318-54.751,10.102c-8.246,4.726-8.504,9.264-10.782,13.118c-8.251,13.965-10.943-6.515-39.434-3.824
	c-31.172,2.944-3.908,29.192-36.48,31.934c-4.388,0.369-7.507,3.006-10.2,6.281c-4.747,5.773-12.751,8.843-12.203,1.616
	c0.242-3.193,0.94-5.986-2.863-7.998c-2.221-1.175-0.226-2.956,1.185-3.766c3.413-1.958,13.955,1.329,10.646-6.75
	c-3.872-9.454-13.442-4.805-23.921-2.149c-1.878,0.476-2.551,2.106-3.473,3.481c-4.012,5.98-10.918,6.657-16.817,9.141
	c-2.419,1.019-3.136-2.868-2.625-3.869c5.712-11.182,0.1-19.125,12.121-28.233C282.968,189.615,284.004,190.248,284.813,186.921z"/>
<path d="M1191.848,310.668c-6.461-7.209-14.947-10.37-24.209-11.332c-14.369-1.492-16.488,7.507-18.975,16.384
	c-2.528-0.683-2.767-3.161-3.796-4.775c-23.457-36.814-43.771,4.172-47.267,6.022c-4.676-1.711-6.322-7.136-10.081-15.299
	c-5.344-11.606-18.526-15.477-30.798-1.573c-13.759,15.589-13.292,21.222-21.547,6.052c-19.305-35.48-37.674-25.886-59.279-39.151
	c-2.127-1.306-1.547-1.001-25.076,5.659c9.074,31.049,35.345,64.64,56.37,81.953c1.604,1.321,3.862,2.322,3.345,5.085l0.108,0.176
	c-10.004-6.567-20.979-10.725-32.801-12.199c-22.755-2.839-29.836,22.632-34.041,32.705c-4.033-2.546-41.233-28.778-51.407-12.878
	c-8.041,12.566,1.491,21.348,1.864,26.635c-17.036-19.677-52.661-110.515,10.457-178.734c14.117-15.257,16.033-9.129,30.331,17.755
	c9.672-16.529,14.962-35.135,30.862-47.161c3.465,5.855-0.435,10.256-4.454,24.167c-3.019,10.449,5.12,11.429,24.264,17.763
	c2.551,0.844,3.399-0.813,4.19-2.746c3.008-7.348,12.977-16.551,16.456-15.173c-1.22,7.234-19.207,26.451-14.644,35.809
	c10.996,1.79,89.432-68.514,137.843-29.394c33.29,26.901,66.517,87.451,62.12,94.1L1191.848,310.668z"/>
<path d="M1088.543,525.151c18.977,4.855,20.836,22.091,67.917,23.731c4.408,0.154,8.653-0.853,12.816-2.116
	c6.804-2.066,6.274,0.13-9.777-30.146c6.357-0.778,7.389-0.391,15.546,5.797c2.454-1.894,3.967-4.652,5.827-7.115
	c3.601-4.767,2.028-6.49-1.772-23.449c13.261,7.845,18.407,20.064,24.122,32.533c0.625-1.013,27.059-57.977,25.867-92.592
	c-0.071-2.065-0.621-4.235,0.481-6.262c11.563,6.046,11.544,6.009,24.284-0.675c10.687-5.607,21.229-11.865,33.256-13.973
	c39.364-6.899,71.337,16.021,76.389,44.265c-3.009,1.483-25.848-11.742-31.8,13.734c-1.507,6.448-1.832,12.864-0.454,19.37
	c0.394,1.861,0.859,3.779,0.232,5.786c-2.616,0.396-3.647-1.966-5.266-3.147c-19.02-13.877-39.011-6.114-39.501,13.126
	c-0.149,5.861,1.806,11.272,4.088,18.104c-8.624-6.316-20.703-17.841-38.253-6.487c-14.314,9.261-23.909,23.659-35.702,31.676
	c-4.425,3.008-1.854,4.438,1.151,17.189c2.563,10.877-7.071,21.306-19.71,11.719c-9.605-7.286-8.993-13.838-14.356-9.378
	c-13.164,10.947-10.276,20.947-14.577,29.879c-3.224,6.695-6.086,5.578-16.202,2.357c-16.757-5.335-28.865,8.55-29.977,24.923
	c-0.179,2.634-0.03,5.291-0.03,9.112c-25.885-12.337-45.88,3.645-44.213,30.397c-23.971-13.218-18.335-51.865-3.205-74.097
	C1097.667,557.163,1087.565,531.073,1088.543,525.151z"/>
<path d="M350.706,268.598c2.99,3.101-2.216,13.386,7.421,9.246c14.996-6.442,15.507-17.497,48.525-26.366
	c53.924-14.484,77.253-4.331,79.419-0.528c-0.352,2.134-2.071,1.986-3.377,1.997c-20.845,0.175-49.074,26.669-39.49,36.071
	c-22.782,7.175-40.882,18.158-41.613,45.271c-13.612-3.435-24.382,1.799-34.486,9.606c-9.233,7.134-3.094,11.969-7.504,16.606
	c-8.761-2.017-17.762-6.369-26.786-0.066c1.836,5.958,20.683,6.993,24.359,17.105c3.879,10.673,6.873,10.376,5.465,12.948
	c-0.924,1.688-2.445,0.888-3.84,0.761c-17.071-1.551-2.921-5.371-26.074-6.021c-3.985-0.112-6.609,4.991-5.503,7.755
	c0.852,2.128,2.681,1.451,4.344,1.282c6.351-0.645,6.622,1.461,5.64,2.504c-3.95,4.192,3.526,9.672-3.048,9.848
	c-6.586,0.176-7.233-6.595-17.346-5.8c-21.523,1.692-8.483-21.527-32.638-17.603c-18.033,2.93-19.384,17.851-26.141,8.569
	c-9.404-12.918-36.681-15.046-54.43-6.259c-1.037-10.669-10.949-22.306-19.869-21.969c-9.663,0.365-19.278,0.718-28.665,3.506
	c-12.877,3.824-0.014-6.751-10.339-14.494c-19.362-14.52-36.393-16.596-57.348-12.811c-9.965,1.8,6.556-17.421,33.855-20.229
	c30.832-3.173,63.385,6.843,88.523-2.782c5.766-2.208,5.144-2.71,1.698-9.647c1.751-2.948,26.409,1.56,37.582,27.16
	c7.495,17.173,15.035,27.218,28.158,29.764c9.325,1.809,6.562-8.092,1.663-13.97c-2.584-3.1-15.918-17.415-10.063-22.073
	c11.413-9.08,19.41,28.852,31.147,6.583c2.52-4.781,6.699-8.226,9.672-12.626c0.852-1.261,2.052-2.202,3.655-1.632
	c2.535,0.901,1.07,2.302-0.349,20.996c-0.777,10.243,10.164,1.982,13.593-3.681c12.599-20.81,13.626-22.092,13.734-32.095
	c0.076-6.997-1.006-13.994-0.001-20.988C341.259,277.523,344.367,272.001,350.706,268.598z"/>
<path d="M154.38,437.976c6.553-14.095,55.981-22.215,107.015-0.226c3.118,1.344,5.649-0.014,7.98-1.863
	c2.753-2.183,0.218-4.269-0.874-6.68c5.632-1.912,9.211,0.793,12.471,4.005c34.318,33.822,16.446,65.905,33.741,93.514
	c3.707-2.184,1.603-5.741,1.12-11.753c-0.479-5.958,5.967-6.914,8.815-3.607c6.671,7.747,2.361,16.414,8.054,12.26
	c4.881-3.562,8.021-8.625,12.101-5.713c4.294,3.065-2.54,11.947-3.121,12.947c10.099,7.814,38.173-18.597,41.294-21.879
	c3.9-4.1,7.541-4.575,27.156-10.424c1.017,7.126,5.966,8.996,12.255,9.563c28.219,2.543,71.364,17.41,77.495,53.031
	c-2.657,2.541-4.462-0.076-19.121-4.271c-22.702-6.497-19.513,18.315-27.098,4.666c-12.616-22.701-30.621,0.896-43.145,2.771
	c-0.399-2.766,0.096-6.166-2.955-7.503c-7.047-3.09-14.423-8.906-37.718,3.175c-2.726,1.414-5.173,3.566-8.396,3.889
	c-13.925-33.552-46.514-1.127-57.213,2.652c-5.564,1.966-3.961,7.524-7.591,6.7c-1.236-0.28-1.358-1.393-1.267-2.275
	c0.236-2.296-1.595-3.364-2.657-4.866c0.308-1.855,8.324-3.827,6.019-7.474c-2.859-4.525-8.212-1.437-27.802,5.568
	c-1.539-2.973-0.111-4.756,1.814-6.413c7.291-6.277,9.629-15.21,12.655-23.755c0.753-2.125-0.501-3.667-2.045-5.015
	c-6.632-5.791-13.171-1.963-16.663-3.853c0.105-2.753,4.872-4.051,2.915-7.284c-3.814-6.302-0.428-14.84-26.262-21.092
	c0.338-12.946-10.216-28.23-23.722-30.718c-10.317-1.901-18.178,4.511-19.953,0.156c-0.893-2.192,1.031-2.974,2.516-3.659
	c7.573-3.497-7.583-14.556-17.007-17.866C177.395,441.947,172.522,441.547,154.38,437.976z"/>
<path d="M1413.415,430.106c1.505,3.28,2.621,5.946,3.925,8.516c9.024,17.793,27.241,27.872,47.065,26.09
	c4.901-0.441,4.975-0.438,5.186-5.757c0.285-7.166,0.507-14.336-0.266-21.937c5.463,1.625,5.49,6.263,7.234,10.211
	c5.027-1.33,9.993-3.487,15.52-1.339c1.37-6.032,0.879-11.816,1.432-17.61c5.492,5.417,5.075,10.827,5.967,28.173
	c23.041-3.641,39.151-21.118,41.5-44.579c28.171,11.192,52.448,50.767,36.265,86.131c-1.462-1.862-1.797-26.45-22.49,1.647
	c-1.687-1.345-1.166-3.124-1.348-4.567c-1.839-14.535-11.23-21.48-17.564-10.996c-1.312,2.171-2.233,4.578-3.4,7.018
	c-8.282-11.165-23.441-14.695-35.524-8.636c-4.455,2.234-11.193,28.977-20.48,25.354c-5.422-2.115-2.573-8.596-3.905-18.931
	c-0.996-7.724-1.432-7.99-8.137-3.729c-17.424,11.071-21.359,19.921-25.843,26.103c-19.29-12.233-26.554-16.898-37.642,1.994
	c-2.115-1.466-6.501-20.899-24.975-13.536c-5.263,2.098-9.579,5.533-13.447,9.602c-1.116,1.174-1.653,2.974-4.115,3.505
	c-6.682-27.902,18.035-54.129,42.78-68.867C1409.689,438.883,1409.689,438.883,1413.415,430.106z"/>
<path d="M519.116,291.882c7.282-13.892,24.681-26.332,59.588-23.461c15.546,1.278,21.091,4.916,24.36,0.085
	c1.757-2.596,2.835-1.096,4.565-0.188c21.319,11.197,23.092,39.887,38.31,39.747c1.688-1.97-1.884-8.958,2.425-10.64
	c4.54-1.773,5.551,6.437,9.647,8.22c1.576-1.436,7.335-11.605,12.247-7.923c4.734,3.548-2.377,7.584-2.156,13.628
	c10.793-4.964,12.623-15.234,26.082-39.308c11.539-20.638,40.382-28.844,35.922-21.119c-8.295,14.369,21.093-2.503,61.894,15.081
	c10.421,4.491,20.174,11.442,21.8,15.011c4.074,8.943-16.224-3.046-35.428,3.278c-6.937,2.284-7.629,3.813-5.68,10.497
	c-2.982,1.565-5.135-0.437-7.167-1.935c-12.92-9.526-30.194,3.092-33.287,11.447c-1.605,4.336-2.834,1.318-15.124,3.175
	c-5.722,0.865-8.198,5.408-11.753,8.83c-2.071,1.994,0.795,4.077-0.401,6.18c-1.236,0.125-17.385-7.615-16.325,6.211
	c0.45,5.88-0.338,12.124,3.402,17.46c0.814,1.161,0.867,2.718-0.947,4.332c-12.22-8.995-15.99-13.382-18.945-10.602
	c-1.72,1.618-0.451,2.685,2.509,6.79c-2.236,1.005-3.782,2.666-5.173,5.408c-4.192-9.738-11.802-15.805-17.328-23.472
	c-1.983-2.751-14.577-15.448-29.482-0.433c-8.289-8.651-16.847-19.099-29.065-17.57c-9.676,1.211-7.115,7.682-12.691,1.163
	c-8.974-10.492-15.57-18.75-26.116-9.34c-10.65,9.503,0.292-7.803-20.217-9.761C529.806,292.216,524.95,293.064,519.116,291.882z"/>
<path d="M1068.309,436.531c-40.018-28.98,11.281-58.491,20.958-84.237c12.128,20.386,28.766,32.689,51.175,39.497
	c-1.239-6.981-4.586-11.897-5.505-18.295c10.434,1.198,10.888,12.922,21.221,8.403c2.186-0.956,1.75-1.533,2.844-14.903
	c5.646,2.984,7.555,7.916,9.781,12.531c2.255,4.677,2.245,4.799,6.681,2.503c16.585-8.586,26.607-32.76,32.893-50.436
	c0.394-1.107,0.373-2.428,2.392-3.355c4.758,7.657,12.893,9.591,21.257,10.847c25.405,3.815,43.305,36.989,38.536,64.059
	c-3.231-1.099-3.289-4.109-4.426-6.172c-10.712-19.446-17.869-3.065-28.026,13.611c-2.743-1.078-18.762-35.724-26.264-16.559
	c-0.87,2.222-1.445,4.558-2.345,7.456c-8.653-5.257-17.764-8.011-28.336-5.793c-9.6,2.014-5.968,3.676-9.358,19.693
	c-2.076,9.81-10.527,13.724-15.726,7.206c-7.813-9.796-7.215-20.934-12.724-14.485c-1.795,2.101-1.359,5.107-3.504,7.523
	c-16.634-11.002-29.416-0.564-33.322,19.907c-3.245-3.669-13.01-16.414-22.673-19.887
	C1070.585,410.883,1069.513,425.887,1068.309,436.531z"/>
<path d="M542.51,623.77c9.87,3.419,17.757,8.067,19.648,18.965c-9.094,2.304-7.434-5.202-19.836-3.304
	c-1.684,0.258-3.167,1.708-3.105,3.552c0.092,2.749,2.035,1.638,5.794,2.122c0.8,1.009,0.156,1.857,0.087,2.755
	c-0.488,6.319-0.53,6.478-5.597,3.627c-8.13-4.574-12.504,0.847-16.907-7.445c-3.627-6.831-6.721-7.909-13.989-5.669
	c-9.693,2.988-10.4,9.857-15.011,5.096c-13.487-13.922-32.983-4.329-35.08-4.96c-1.364-1.08-2.505-14.126-16.961-13.399
	c-5.064,0.255-10.145,0.386-15.003,2.126c-3.196,1.145-4.654-0.055-4.218-3.374c0.783-5.948-12.655-17.247-41.201-15.031
	c-2.064-4.523,11.176-12.628,28.843-13.261c13.114-0.47,63.23,6.579,52.894-8.353c19.633,2.316,21.22,12.514,30.463,28.335
	c4.853,8.306,17.539,13.661,16.589,6.018c-0.699-5.628-7.908-9.394-9.538-15.97c-1.045-4.218,1.117-5.341,4.645-4.282
	c6.658,1.999,8.25,16.167,16.616,3.881c2.154-3.164,4.343-6.328,7.874-8.83c3.36,4.898-2.113,14.854,1.28,16.465
	c2.364,1.122,4.814-0.912,6.121-2.831c5.68-8.342,12.103-16.429,10.707-27.613c-0.906-7.259-0.11-15.92,6.396-19.325
	c2.922,7.416,3.977,7.955,10.94,2.049c26.842-22.766,75.22-21.298,77.922-13.936c-1.422,1.705-3.545,1.059-5.299,1.458
	c-13.914,3.164-23.967,16.236-23.342,18.722c1.473,5.857-2.827,5.669-6.227,7.182c-10.406,4.632-18.672,11.294-19.528,23.826
	c-0.174,2.556-1.302,3.27-3.716,2.943c-9.468-1.281-23.457,6.342-23.139,13.964c0.146,3.517-1.758,3.792-4.729,2.889
	C552.397,620.794,547.715,619.284,542.51,623.77z"/>
<path d="M2247.834,397.646c-1.022-5.179-1.83-5.837-6.247-4.406c-7.531,2.44-13.354,7.291-18.255,13.367
	c-1.747,2.165-2.903,4.912-5.806,5.951l0.154,0.145c6.915-27.602,64.697-71.977,90.067-77.565
	c-0.513,8.158-2.983,18.943,8.264,22.681c5.196,1.727,9.504-1.693,9.026-7.17c-0.336-3.85-0.48-8.355,3.492-9.195
	c3.081-0.652,3.773,2.128,4.702,4.416c3.51,8.636,5.862-0.089,13.159-2.478c2.246-0.735,5.043,0.279,3.41,3.839
	c-3.422,7.458-9.126,6.082-7.036,11.497c2.234,5.787,20.642-0.547,28.074-10.959c3.523-4.937,4.051-7.388,6.848-5.095
	c30.351,24.879,50.718,56.213,28.19,88.476c-0.59-3.999,0.768-7.87,0.394-11.855c-1.036-11.062-9.96-18.699-21.337-8.912
	c-2.789-4.064-3.072-9.624-7.387-12.636c-10.318-7.202-20.892-3.477-27.112,4.133c-14.752-11.517-15.822,3.369-21.822-0.095
	c-1.27-0.733-1.791,0.983-2.456,1.954c-2.873,4.19-8.823,9.541-13.515,12.318c-1.116-1.436-0.179-2.699,0.297-4.032
	c1.165-3.264-0.587-5.783-5.347-4.167c-4.344,1.474-3.081,6.015-7.158,7.351c-1.618-2.867-0.614-6.328-1.674-9.286
	c-0.064-0.179-2.466-8.275-2.577-8.467c-3.648-6.29-3.687-5.81-14.136-2.116c-6.336-23.906-31.364,3.027-34.122,2.159
	L2247.834,397.646z"/>
<path d="M630.1,360.499c-27.493,7.353-25.901,8.539-37.02,14.563c-8.703,4.715,1.303,10.957,4.833,13.633
	c-12.1,1.915-47.627,5.608-43.327,21.318c-8.542-0.101-13.578,5.702-19.532,9.627c-1.933,1.275-4.053,3.99-3.195,6.113
	c3.522,8.711-9.695,0.636-20.498,14.966c-7.234,9.595,12.196,5.02,8.105,13.538c-2.301,4.791-5.212-4.991-15.357-0.522
	c-7.432,3.274,3.909,7.455,8.566,9.743c-7.082,6.209-32.921-2.283-44.269-2.994c-24.016-1.504-23.548,13.691-31.967,8.408
	c-6.864-4.307-9.414-3.436-12.242-0.597c-10.864,10.909-8.078-9.693-31.418-3.688c-24.338,6.262,6.502-9.913-47.119-5.697
	c-0.234-7.651,14.999-14.066,24.797-16.033c26.684-5.355,30.051-3.333,30.405-9.023c0.104-1.677,2.251-1.396,3.65-1.215
	c4.228,0.547,7.537,3.06,11.047,5.192c19.876,12.074,46.501,12.326,50.412,9.208c-0.258-3.999-7.68-4.546-6.517-7.685
	c1.193-3.22,5.53-0.8,10.394,1.253c7.636,3.222,6.214-2.202,6.802-10.368c0.285-3.962,5.025-4.512,6.513-1.006
	c1.248,2.94,0.397,5.618,3.039,7.897c24.208-14.449,33.957-38.758,43.017-64.766c7.048,17.97,48.65-17.653,90.731-15.082
	C623.485,357.499,626.981,358.115,630.1,360.499z"/>
<path d="M426.297,673.592c3.146-8.106,32.144-13.552,61.328-3.516c10.025,3.447,11.63,6.565,13.351-1.093
	c0.753-3.352,5.577-0.541,8.114,1.903c23.114,22.266,10.315,49.069,21.825,60.077c3.126-2.756-1.609-8.292,2.589-9.802
	c5.383-1.937,6.978,7.595,7.511,8.661c2.719,0.42,3.71-2.042,5.495-3.088c3.178-1.863,5.618-0.995,4.912,3.465
	c-0.256,1.615-2.296,2.604-1.471,4.856c6.826,2.516,20.721-9.799,24.739-13.846c4.738-4.772,11.315-5.102,17.153-7.212
	c1.107-0.4,1.824,0.297,2.24,1.242c3.294,7.48,14.091,1.596,35.528,12.196c11.243,5.56,19.915,13.512,22.715,26.312
	c-1.608,1.841-2.234,1.324-11.018-1.584c-15.166-5.022-15.51,11.313-19.074,2.825c-7.132-16.984-25.458,5.317-28.698-0.238
	c-6.343-10.873-20.145-4.195-31.249,1.602c-2.469-2.068-2.424-5.865-5.464-7.402c-4.287-2.167-8.675-2.931-13.323-1.633
	c-4.003,1.118-20.657,11.47-24.252,15.188c-0.683-2.446-3.667-4.091-0.379-6.669c3.16-2.478,0.184-4.686-2.237-3.979
	c-4.73,1.381-7.802,2.563-13.603,4.326c-1.419-1.217-1.099-2.532-0.122-3.231c4.248-3.042,5.335-7.97,7.356-12.257
	c3.828-8.121-1.935-9.415-10.544-9.415c4.154-6.837-2.135-15.617-10.689-17.681c-9.191-2.218-3.24-16.831-20.204-21.322
	c-5.844-1.547-11.676,3.235-13.006-0.12c-1.113-2.808,4.885-2.003,1.216-6.484c-3.852-4.704-9.021-7.188-14.774-8.568
	C437.13,675.871,431.95,674.827,426.297,673.592z"/>
<path d="M2556.694,340.202c-7.433-15.386-15.287-18.059-26.177-8.873c-2.812-0.411-4.409-6.394-12.183-2.847
	c-7.568,3.453-11.398,13.016-14.783,12.552c-1.237-1.967,1.117-6.404-3.51-7.007c-4.594-0.598-3.363,4.661-6.578,6.125
	c-1.027-4.296-3.316-7.857-4.686-11.954c-1.024-3.065-4.465-5.448-7.13-7.793c-2.626-2.311-7.484-0.275-10.842,0.765
	c-4.727-13.081-21.99-14.93-30.017,0.597c-2.262-4.427-4.445-7.688-9.062-6.658c-9.898,2.209-10.387,11.353-12.143,19.056
	c-3.489-10.597-3.671-21.153,0.341-31.544c10.354-26.815,38.641-33.428,45.963-36.265c10.289-3.987-0.448,9.212,22.219,21.857
	c7.807,4.355,10.034-0.75,8.628-3.893c-0.447-1-4.391-6.038-1.088-8.503c2.492-1.86,4.982,0.393,6.951,2.13
	c0.844,0.745,1.149,2.079,1.778,3.096c4.544,7.348,7.372-1.058,12.482-1.47c3.998-0.322,5.568,2.287,3.713,5.306
	c-2.334,3.801-5.456,3.332-3.912,7.567c1.987,5.449,17.478,6.478,29.025-10.883c10.187,7.005,46.948,39.756,25.299,75.933
	C2570.841,354.715,2573.835,332.413,2556.694,340.202z"/>
<path d="M1111.578,488.318c-4.933-5.445-9.219-10.143-16.197-7.805c-6.62,2.219-6.307,8.36-6.892,13.809
	c-0.465,0.074-1.135,0.312-1.221,0.176c-9.185-14.403-23.051-1.788-34.8,4.084c-7.506,3.752,1.341,12.627-7.215,15.363
	c-4.853,1.552-6.538-2.761-8.507-6.07c-2.456-4.128-3.064-4.139-7.105-1.337c-6.612,4.585-5.03,15.505-13.587,10.822
	c-16.749-9.166-18.233,8.776-21.115,10.633c-11.104-7.984-20.818-2.836-24.071,10.038c-3.966-5.664-5.127-10.236-4.096-15.46
	c4.731-23.985,22.307-21.824,25.077-47.712c0.097-0.907,0.55-1.777,1.188-3.741c10.254,11.349,20.387,22.034,36.954,21.175
	c0.651-5.691-2.644-10.252-2.121-15.281c4.082-0.437,4.449,5.131,7.535,3.342c6.287-3.644,2.117-7.334,4.746-11.844
	c5.282,4.205,5.14,10.488,6.962,17.348c10.476-14.158,20.472-27.174,24.16-44.711c3.371,3.767,6.938,4.517,11.17,3.008
	c25.571-9.117,49.047,6.829,49.047,29.036c-5.016-1.809-9.968-4.993-14.536-0.039
	C1113.352,477.06,1113.016,482.264,1111.578,488.318z"/>
<path d="M1367.392,314.384c5.385-2.734,6.19,7.989,14.75,0.223c7.077-6.42-1.254-7.995-2.044-15.059
	c8.071,1.884,11.092,9.621,17.242,13.882c2.655-3.85-0.35-16.855,10.542-9.765c29.052,18.91,29.754,53.804,26.531,67.097
	c-1.694-0.479-2.405-10.458-10.961-5.444c-4.444,2.605-7.489,6.751-11.224,10.731c-4.075-3.56-6.677-9.181-12.79-9.677
	c-5.857-0.475-9.556,3.981-15.229,7.493c8.234-16.355,15.349-38.864,10.549-40.604c-6.55-2.374-9.506-0.886-23.271,11.438
	c-6.297,5.638-3.861,12.354-7.195,16.943c-4.307,0.041-15.645-14.26-19.59,1.43c-1.921,7.641-2.139,7.68-9.82,5.564
	c-3.673-1.012-7.463-4.075-10.982-2.589c-5.155,2.178-1.805,11.194-6.184,11.739c-12.857-89.514,46.798-46.848,58.729-51.138
	c-0.173-6.117-6.082-8.137-8.85-12.307L1367.392,314.384z"/>
<path d="M667.029,552.662c2.384-1.944,13-8.78,2.049-9.178c-2.69-0.098-4.371,1.792-6.305,3.188
	c-2.39,1.726-4.191-0.939-3.054-3.199c1.847-3.672,9.694-3.521,4.337-8.476c-9.417-8.711-16.683-1.626-19.21-8.191
	c-4.108-10.674-18.547-6.344-21.23-12.378c-3.994-8.982-27.097-6.547-35.388-6.048c-1.43-3.462,8.695-7.957-1.703-11.833
	c-12.741-4.751-23.036-4.303-31.352-4.303c24.07-19.617,78.574,8.703,82.039-7.897c11.277,17.604,24.694,37.268,44.976,43.007
	c2.226-1.782,0.984-3.898,1.435-5.665c1.02-3.995,4.645-3.859,5.584-0.278c0.72,2.749,0.627,6.295,3.71,7.344
	c2.846,0.968,4.412-2.425,6.739-3.538c3.771-1.804,5.724,0.514,2.991,3.19c-1.009,0.988-2.321,1.834-1.907,3.995
	c7.839,1.484,30.057-6.675,38.865-17.294c2.3-2.773,7.737-6.018,9.155-3.843c5.229,8.016,34.619-5.982,47.808,9.788
	c-8.645,2.455-25.033,2.724-26.82,10.56c-1.244,5.458-17.351-2.569-24.395,8.846c-1.952,3.164-5.097,3.996-8.079,1.682
	c-7.521-5.837-7.9,7.62-17.22,2.245c-11.765-6.785-23.622,0.99-37.87,6.139C677.786,552.115,673.376,554.174,667.029,552.662z"/>
<path d="M567.527,798.569c-5.106-2.192-10.182-1.605-15.425-0.501c-4.278,0.901-6.232,5.38-10.268,5.923
	c-3.781,0.509-7.621,0.085-11.47,1c-4.867,1.157-6.892,7.067-10.866,7.467c-6.186,0.624-12.042-6.097-20.105,3.042
	c-3.329-1.3-5.174-5.042-9.805-3.976c2.322,4.941,7.678,9.229,3.712,15.399c-2.229,0.121-3.334-1.501-4.414-3.057
	c-4.215-6.073-9.984-3.165-7.175-0.862c2.997,2.458-0.212,3.475-1.173,5.596c-2.752-1.931-3.915-5.143-6.945-6.348
	c-5.495-2.184,0.886-11.897-10.872-12.265c-4.159-0.13-6.88,2.07-8.248-1.649c-5.127-13.94-19.166-8.339-18.347-15.164
	c0.866-7.216-4.398-9.535-11.35-11.646c-10.766-3.271,3.691-7.951-13.958-19.404c-2.783-1.806-5.947-3.024-10.058-5.06
	c19.495-10.638,47.71,24.244,54.246,12.413c0.952-1.724,7.719,3.85,8.083,11.758c0.214,4.646-1.125,21.524,5.814,20.446
	c3.501-0.544,1.748-4.264,1.524-6.734c-0.091-1-1.285-7.318,1.838-7.662c2.034-0.224,2.638,1.927,3.171,3.361
	c2.334,6.283,2.314,6.245,8.07,3.551c1.707-0.799,3.326-2.019,5.642-1.699c1.007,3.788-3.749,5.265-3.636,8.642
	c1.037,1.736,2.592,1.171,3.817,0.607c15.486-7.132,12.343-10.869,18.375-18.381c5.295-6.594,3.5,3.271,12.534,0.699
	C537.881,779.043,568.463,790.828,567.527,798.569z"/>
<path d="M1558.476,312.057c22.79,6.498,31.214,26.017,31.014,49.616c-3.278-1.15-2.486-10.336-9.51-9.552
	c-6.494,0.725-3.772,8.814-5.379,11.237c-2.684,0.151-3.432-2.339-4.914-3.734c-11.007-10.354-11.17,4.462-13.766,4.882
	c-1.657-0.616-1.846-2.743-2.877-4.198c-2.587-3.652-10.367-4.735-10.939,2.494c-0.665,8.402-11.491,13.533-18.407,3.433
	c-2.967-4.333-5.201-4.213-8.354,0.025c-2.794,3.755-2.252,8.197-2.634,13.55c-5.155-6.163-12.746-17.136-14.299-2.078
	c-0.634,1.124-1.027,1.162-1.596,1.01c-10.635-2.85-7.035-0.757-9.71,8.719c-11.232-3.36-10.771-39.09-13.08-52.459
	c-1.259-7.287,15.152-4.026,38.305,13.891c5.891,4.559,2.653-3.538,8.199,0.834c1.847,1.456,3.234,3.69,9.994,0.801
	c2.878-1.23-0.651-4.248,1.673-5.55c6.231,2.747,6.231,2.747,11.43-2.63C1554.609,330.99,1556.776,326.648,1558.476,312.057z"/>
<path d="M1460.576,617.222c5.171-0.047,6.372,5.253,9.934,7.374c4.665-7.375,7.422-18.65,8.053-33.295
	c10.1,3.111,18.708-13.305,41.412-7.555c6.72,1.702,12.444,4.74,16.523,11.666c-5.259,0.776-15.41-1.901-12.174,13.958
	c-2.159,1.433-19.828-8.389-18.092,11.154c-13.538-6.366-21.011,7.277-25.783,10.669c-7.873,5.596,2.503,7.639-2.33,12.338
	c-6.526,6.345-14.011-11.272-17.8,6.054c-2.364,10.81-15.943-5.738-19.902,16.145c-1.951-0.039-17.344-2.677-17.459,12.05
	c-9.309-3.199-9.255-14.116-4.905-23.03c5.685-11.65,5.734-11.626,4.408-24.216c11.781,4.11,23.371,8.538,35.817,3.715
	c-0.277-3.811-4.38-5.208-4.972-8.602c3.298-2.905,8.968,4.798,7.467-8.532L1460.576,617.222z"/>
<path d="M1319.757,303.774c-2.783-6.665-3.258-6.791-13.477-3.593c-1.389-12.684-3.197-14.093-11.688-8.578
	c-2.628-9.073-19.097-15.978-24.842-7.557c-1.038,1.522-6.964,5.561-8.461-0.17c-1.604-6.139,1.759-11.169-4.881-10.143
	c-4.309,0.666-8.728,1.316-12.453,3.6c-11.865,7.274-7.148-13.849-26.317-6.007c-4.937-11.362-9.242-13.115-23.822-9.13
	c0.182-14.581,19.984-21.048,34.596-22.086c2.838-0.201,5.941,0.599,7.781-2.391c1.773,1.01,1.494,2.634,1.837,3.934
	c3.06,11.606,11.242,18.133,21.837,22.426c4.987,2.021,4.102-2.818,8.495-10.503c0.571,6.294,5.454,6.333,9.329,7.053
	c3.697,0.686,2.266-4.332,5.153-5.289c2.945,4.478-1.599,8.697-0.923,13.607c11.803,0.885,23.377,1.543,29.852-11.497
	C1327.547,271.738,1330.825,291.606,1319.757,303.774z"/>
<path d="M644.086,672.503c15.496-8.806,21.09-24.577,27.303-40.558c11.772,8.058,45.072-19.148,65.494-9.918
	c-0.42,2.436-2.504,1.974-3.995,2.317c-6.175,1.423-11.964,3.754-17.35,7.082c-5.045,3.117-5.099,3.506-1.25,7.947
	c0.461,0.532,1.162,0.916,0.908,2.043c-15.389,3.117-25.277,3.784-27.167,12.329c-0.717,3.244-13.499,3.621-14.619,13.194
	c-0.252,2.152-2.421,1.996-3.972,2.491c-6.681,2.13-14.195,8.76-7.96,10.569c2.043,0.593,4.189,1.794,3.448,3.777
	c-1.137,3.039-3.737-1.619-8.577,0.047c-2.891,0.995-2.674,2.892-0.684,3.998c1.426,0.793,3.301,0.919,4.212,2.954
	c-3.625,2.51-6.345,1.483-26.051-1.851c-16.933-2.865-16.877,9.039-24.346,4.409c-6.771-4.197-7.971,5.783-13.067,1.013
	c-9.204-8.615-18.534,1.229-21.618-3.334c-3.093-4.576-7.339-4.206-23.153-4.206c4.324-12.668,30.893-9.119,36.159-15.435
	c2.189-2.626,5.177-0.485,7.128,0.971c6.335,4.728,19.558,9.277,34.052,8.062c0.989-3.416-3.437-3.153-2.631-5.925
	c3.592-2.981,10.112,5.89,10.733-1.96c0.276-3.488,0.048-5.388,1.884-5.739c1.843-0.352,2.487,1.01,2.908,2.466
	C642.207,670.393,642.332,671.641,644.086,672.503z"/>
<path d="M1234.216,592.171c10.488,7.761,21.764,10.616,34.24,9.283c0.265-4.037-4.164-5.156-3.923-8.537
	c4.457-1.882,13.015,6.623,12.693-6.044c-0.01-0.417,0.356-0.843,0.564-1.302c5.885-0.906,5.388,8.116,11.499,2.597
	c8.257-7.457,10.765-21.421,12.487-31.793c5.835,2.436,11.378,1.201,17.021,0.364c17.021-2.525,31.011,17.696,27.065,22.356
	c-9.412-4.851-10.941-4.225-15.012,5.957c-0.616,1.541-0.595,3.367-2.449,5.037c-11.457-6.965-14.503-9.815-17.01-1.605
	c-1.744,5.715-4.658-0.939-18.115,5.924c-6.838,3.487-1.104,6.728-3.382,13.481c-1.509,4.474-4.938,5.803-8.983,3.417
	c-1.029-0.607-1.917-1.448-2.893-2.149c-7.418-5.328-3.026,4.258-9.172,4.811c-12.529,1.127-13.058,7.169-14.935,17.131
	c-3.519-1.39-6.712-2.994-10.091-3.919c-15.889-4.348-10.864,10.169-12.738,12.695
	C1207.131,633.122,1227.866,611.832,1234.216,592.171z"/>
<path d="M434.197,877.364c-2.386-1.989-6.294-0.497-9.403-3.042c20.847-10.665,4.703-11.054,7.566-15.825
	c2.328-3.879,1.125-7.552-1.9-10.464c-6.355-6.116,6.376-14.65-12.168-21.425c5.691-6.629-1.82-11.48-10.856-19.72
	c3.906-2.321,7.161-1.015,10.188-0.09c29.306,8.958,26.145,25.564,34,18.505c2.349-2.111,7.69,10.832,2.236,24.414
	c-5.068,12.621-5.844,13.783-5.244,16.456c1.556,1.129,1.814-0.697,2.579-1.245c1.916-1.373,3.837-0.702,3.575,1.306
	c-0.66,5.044,2.678,4.947,5.556,4.933c0.955,1.489,0.438,2.354-0.262,3.016c-2.366,2.238-1.173,3.295,1.276,3.698
	c7.203,1.183,26.134-8.02,28.584,1.737c0.582,2.317,27.741,17.699,19.925,36.112c-5.73-1.934-8.68-10.939-16.127-5.326
	c-2.736-9.048-2.736-9.114-11.938-9.185c-2.814-0.022-4.563-0.389-5.898-3.583c-4.305-10.298-17.005-0.467-18.55-10.36
	c-1.739-11.134-24.769-1.993-25.477-5.263C431.135,878.669,435.812,880.073,434.197,877.364z"/>
<path d="M2489.861,196.54c1.076,1.41,5.804,10.321,11.972,5.435c6.104-4.835-4.368-7.29-1.534-11.04
	c1.913-2.532,6.964,2.852,7.098-3.009c0.117-5.089,4.659-6.627,4.086,1.157c-0.194,2.63,2.462,4.375,4.659,1.341
	c9.788-13.521-1.437-18.899,8.86-19.369c20.225-0.923,38.898,3.948,43.288,23.639c-1.697,1.07-1.456-0.97-4.088-3.081
	c-4.875-3.911-9.347-3.37-12.598,2.038c-3.188,5.304-13.229-6.013-17.964,10.48c-0.325,1.134-0.115,2.523-1.586,2.895
	c-6.937,1.753-6.622,7.686-7.493,12.924c-0.166,1-0.639,7.251-1.639,6.72c-6.963-3.701-4.04,3.127-5.644,4.927
	c-1.782-0.1-2.598-1.406-3.667-2.333c-7.79-6.751-9.073,1.929-12.964,1.648c-14.65-1.06-6.611,14.746-14.647,15.409
	c-4.377,0.361-2.607,10.421-3.91,16.799c-7.127-22.656-2.044-44.225,5.837-65.541
	C2488.573,197.232,2489.217,196.886,2489.861,196.54z"/>
<path d="M1347.23,645.725c0.118,3.064-2.738,5.474,0.232,8.405c8.704-10.537,14.1-23.681,24.427-33.988
	c12.466,16.215,23.29,20.516,22.005,29.367c-12.207-8.304-11.496-5.277-11.496,8.595c-5.706-1.179-8.979-6.877-14.824,5.934
	c-6.361-7.478-19.258-8.015-19.557-0.02c-0.313,8.351-12.657,15.722-21.234,6.933c-0.933-0.956-1.295-3.103-3.07-2.428
	c-3.173,1.207-1.749,5.452-1.145,8.469c-2.715,1.701-3.226-6.044-7.929-4.146c-3.215,1.298-2.939,4.619-3.446,9.765
	c-2.598-0.925-2.922-3.398-4.352-4.9c-3.49-3.665-6.162-1.926-6.639,2.389c-0.177,1.604,1.154,3.176-0.322,5.388
	c-7.478-16.077-14.746-38.419-2.694-51.427c4.28-4.619,7.16,0.924,8.478,7.094c2.442,11.43,10.489,10.039,13.539,12.215
	c3.271,2.333,5.896,2.629,7.922-1.574c0.474-0.984,2.053-1.65,2.82-0.024c0.694,1.473,0.672,3.617,3.108,2.983
	c3.198-0.833,6.784-1.036,8.818-4.257C1343.106,648.544,1343.464,645.767,1347.23,645.725z"/>
<path d="M1543.585,550.276c-0.051-8.285,1.631-8.625-0.302-19.849c-1.563-9.084-16.806,4.646-17.452,13.309
	c-0.407,5.462-0.407,5.462-5.303,5.286c-8.092-0.29-9.398,1.268-8.066,10.367c-11.495-1.166-14.533,7.965-18.61,17.108
	c-13.864-18.851,4.929-25.284-4.909-32.719c-2.182-1.649-0.696-4.807,2.917-6.811c7.324-4.064,14.656-5.009,34.345-8.698
	c-1.769-3.281-4.673-3.359-7.027-5.016c4.301,0.892,7.772-0.017,9.381-4.236c1.388-3.639-3.799-3.129-3.982-6.014
	c4.786-1.335,8.55,2.901,12.914,2.617c2.356-1.99-2.114-7.053,4.735-7.203c15.285-0.335,31.638,13.017,34.731,28.447
	c-14.515-3.2-8.354,12.161-19.341,7.593C1552.207,542.208,1547.964,545.231,1543.585,550.276z"/>
<path d="M2481.537,182.037c-2.272-0.169-10.043-5.981-12.49-4.859c-8.115,3.722-16.373-7.772-22.475,0.568
	c-2.837,3.876-8.478-2.781-13.413,8.38c-0.383,0.865-0.987,1.633-1.483,2.434c-2.864-0.828-5.675-4.983-8.242,0.365
	c-1.356,2.825-6.039-4.679-9.425-4.633c-0.653,0.009-1.373-0.466-1.962-0.866c-3.569-2.424-6.722,2.836-10.242,0.542
	c-7.839-5.106-18.154,3.729-21.919,5.182c-5.89,2.274-11.745-3.896-24.039,12.304c-1.256-14.436,31.883-31.283,46.139-39.744
	c8.847-5.251,3.087,4.537,11.677,4.628c2.648,0.028,5.047,0.132,3.918-3.813c-0.824-2.881,0.173-4.811,3.127-2.627
	c3.295,2.436,3.761-2.049,5.976-1.869c2.304,2.407-0.931,4.953,2.297,5.938c2.412,0.736,3.959-1.122,5.551-2.635
	c1.921-1.825,0.492-4.77,2.61-6.947c11.505,2.981,42.647,21.032,44.21,27.823L2481.537,182.037z"/>
<path d="M1556.821,697.84c-9.776-14.834-5.296-0.162-14.703-5.693c-3.032-1.782-6.572-1.088-9.93-0.902
	c-6.361,0.352-3.589,8.078-9.346,7.605c-3.219-0.265-2.065-2.653-5.054-7.456c-3.984,1.37-7.779,3.116-10.36,6.362
	c-5.944,7.474-12.576-7.878-19.66,3.23c-5.67-8.321-12.208-5.607-18.931-1.36c-4.651-11.882,11.63-20.716,22.953-25.816
	c4.313,4.783,9.121,9.089,15.861,10.336c10.49,1.941,9.561,0.867,9.561-8.217c2.972,2.623,5.919,2.517,8.843,1.854
	c1.726-0.391,0.894-2.586,2.059-3.496c2.965,1.783,1.244,5.475,3.49,8.235c7.871-2.276,15.502-4.788,16.88-14.802
	c13.622,4.414,20.973,15.218,18.819,28.266C1563.247,692.768,1559.868,694.524,1556.821,697.84z"/>
<path d="M2448.665,244.075c-4.185-5.052-5.415-7.886-11.807-6.202c-2.159,0.569-4.214-4.434-7.823-4.181
	c-1.446,0.101-2.995,0.526-3.765,1.842c-3.463,5.92-6.5-1.187-10.939,8.66c-1.077,2.389-1.642,5.686-5.736,2.645
	c-1.604-1.192-2.274,1.86-3.275,2.951c-2.945-1.812-2.729-8.303-9.479-7.721c-5.67,0.489-11.903-3.473-16.873,2.54
	c-1.932,2.337-3.999,4.181-7.976,3c-4.577-1.358-10.46,6.802-14.022,9.403c0.854-10.198,39.6-40.486,40.687-41.097
	c1.57,0.958,0.995,2.334,1.427,3.349c2.061,4.843,7.806,4.952,6.741-1.359c-0.395-2.337-0.804-4.924,3.159-2.805
	c2.365,1.264,1.526-2.908,3.733-2.282c1.508,3.176-2.105,5.713,1.231,6.6c4.953,1.317,5.331-9.292,5.741-12.595
	C2434.071,216.082,2443.761,228.147,2448.665,244.075z"/>
<path d="M1480.327,533.885c-0.498-3.527-9.432-7.371-8.657,1.015c0.084,0.914,0.699,1.782,0.116,2.806
	c-3.119,1.727-10.491-7.811-11.731,4.674c-1.968,0.544-2.828-1.472-4.351-1.911c-11.835-3.412-0.489,15.955-15.695,11.389
	c-2.541-0.763-4.924-3.744-7.662-0.425c-2.711,3.286-2.28,6.6-0.023,9.907l-0.154-0.119c-1.47,1.266-2.662,0.086-3.938-0.437
	c-6.356-2.609-6.381-2.591-7.124,4.561c-4.691-0.512-3.033-0.381-6.289-0.381c-2.016,3.338,0.968,6.13,0.599,9.71
	c-5.554-2.783-7.729-7.722-9.444-12.799c-3.934-11.65-4.094-11.069-11.842-21.343c5.055-0.782,10.448-0.599,15.855,0.463
	c28.779,5.654,18.053,3.352,18.781,0.027c3.285,0.512,7.469,2.046,9.066-2.221c0.745-1.99,0.512-3.49,3.189-2.885
	c0.547,0.124,1.643-0.307,1.829-0.755c1.773-4.264,4.845-7.782,6.821-11.886c2.736-5.682-3.38-9.75-3.38-12.657
	c21.632-2.141,37.194,17.952,33.907,23.121L1480.327,533.885z"/>
<path d="M1624.408,721.446c-2.115,1.063-1.148,4.148-4.284,4.469c-8.8,0.9-6.041,11.065-7.323,12.273
	c-9.929-1.402-14.861-2.913-13.711,5.733c0.167,1.251,0.671,0.376,0.106,2.697c-17.34-2.709-5.985-19.986-6.334-32.137
	c8.22,3.04,15.792,5.372,23.694,2.827c1.668-2.549-2.44-2.904-1.495-5.008c7.582-0.397,7.582-0.397,7.286-6.355
	c4.713-1.388,6.242,5.723,9.575-4.381c2.108-6.389,1.143-12.894,0.78-19.835c4.476-0.644,8.847-1.632,13.202-2.512
	c8.234-1.665,18.204,5.212,20.849,13.78c-9.151-2.026-7.609-1.164-9.375,9.793c-2.356,0.273-12.566-6.789-12.244,0.576
	c0.219,5.006-3.849,2.058-8.813,5.321c-6.389,4.199-3.109,5.607-2.023,9.578c0.615,2.254,0.444,4.34-1.602,5.838
	c-1.71,1.252-3.197,0.147-4.669-0.628C1626.765,722.81,1625.536,722.081,1624.408,721.446z"/>
<path d="M539.535,879.35c-2.815,0.414-3.831-3.474-6.281-1.543c-1.391,1.096,0.995,2.538-0.196,4.323
	c-8.451-2.397-13.867-12.764-24.026-10.958c-3.723,0.661-3.371-3.39-10.971-3.713c-2.066-7.068-11.187-5.553-14.329-11.973
	c-1.315-2.688-5.819-3.814-9.341-5.931c7.947-5.858,17.218,2.798,25.11,1.183c2.627-0.537,3.452,2.178,4.472,3.999
	c2.823,5.041,7.371,8.182,12.109,11.076c1.282,0.783,3.127,2.048,3.924-0.772c0.33-1.169,1.358-1.692,2.062-0.82
	c3.507,4.344,5.019-0.014,6.802-1.579c2.968,0.418,0.893,3.226,2.44,4.02c3.434,1.762,14.444-3.106,22.235-10.346
	c2.957-2.748,5.052-4.147,9.608-1.686c5.662,3.058,12.719,2.102,19.158,2.985c4.472,0.613,15.802,2.778,16.012,7.31
	c-6.977-0.083-19.282-4.336-17.479,3.902c-4.375,1.272-12.776-5.417-18.862-0.062c-1.781,1.567-8.671-0.71-12.206,3.112
	C546.747,875.151,536.293,868.194,539.535,879.35z"/>
<path d="M1634.357,636.586c3.786-3.806,3.786-3.806,0.497-8.619c3.185-0.424,5.431,2.118,8.21,2.228
	c3.289-1.603-2.121-8.234,9.101-4.565c10.753,3.516,15.895,11.768,18.811,21.835c-1.282,1.838-2.765-0.016-4.036,0.743
	c-4.821,2.877-3.794,9.511-10.663,6.511c-2.958-1.292-5.364,1.12-8.341,3.746c0-5.387,0.301-9.672-0.084-13.895
	c-0.924-10.147-12,0.817-12.566,8.674c-0.268,3.72,1.098,4.854-4.056,4.356c-9.293-0.899-1.65,8.1-8.635,9.274
	c-5.184,0.871-6.522,5.966-9.228,12.305c-2.77-0.886-3.007-3.093-3.237-5.14c-1.618-14.419,3.858-13.63,0.802-19.719
	c-2.105-4.194-1.373-5.919,2.783-8.013c5.441-2.741,11.359-4.121,17.351-4.815c3.448-0.399,3.291-2.491,3.334-4.826
	L1634.357,636.586z"/>
<path d="M1557.179,645.808c-0.225,0.061-0.482,0.227-0.67,0.169c-7.453-2.283-7.452-2.286-7.853,5.198c0,0,0.256,0.13,0.256,0.13
	c-11.123-5.267-18.51-7.28-15.877-15.171c1.684-5.046-3.355-6.219-6.236-9.284c6.251-3.214,11.249-1.029,29.009,4.198
	c1.059-2.295-1.384-2.911-1.72-4.424c2.859-0.731,7.234,1.237,6.932-4.364c-0.069-1.279,1.214-1.527,2.051-0.961
	c3.336,2.259,3.787-0.348,4.977-2.526c3.488-6.389,5.818-12.797,1.193-19.883c13.445-4.214,21.93,7.374,27.211,20.44
	c-8.082-3.318-7.635-1.632-7.57,5.298c-2.981,0.802-8.325-6.323-9.259,4.24c-3.129-1.003-7.37-4.971-9.557,3.573
	c-0.817,3.19-2.929,4.925-6.429,4.303c-1.935-0.344-3.686-2.906-5.835-0.498c-2.547,2.854-1.614,6.379-0.772,9.616L1557.179,645.808
	z"/>
<path d="M1660.76,744.007c-8.495-9.781,3.619-13.583,3.265-28.611c7.988,2.459,22.289,3.421,17.894-3.436
	c-0.681-1.063-0.233-1.88,0.996-1.926c3.2-0.121,2.248-3.147,3.301-4.665c2.3-0.329,2.784,2.658,5.164,2.51
	c7.088-15.136,3.114-18.238,8.656-20.187c4.302-1.513,17.629-14.018,28.495-1.826c-4.687,1.818-8.141,4.463-7.348,9.964
	c-15.012-0.355-6.874,6.34-12.441,7.53c-17.978,3.844-11.516,20.36-18.613,16.57c-8.015-4.28-3.662,8.463-11.947,7.423
	c-0.856-0.108-2.445,0.318-2.617,0.847C1673.121,735.758,1662.847,735.151,1660.76,744.007z"/>
<path d="M1732.346,775.421c5.214,3.252,11.658,3.882,14.309,9.961c1.543,3.537,3.328,6.999,2.412,11.12
	c-2.262,0.691-2.898-3.299-5.497-1.783c-1.906,1.112-2.508,3.594-4.99,4.36c-1.168-1.578-4.74-7.065-5.738-5.574
	c-4.34,6.485-9.532-5.898-13.986,5.613c-1.37,3.54-4.068,4.136-4.859,1.362c-1.364-4.778-4.907-2.364-7.363-3.195
	c-5.147-1.742-6.384,4.612-8.214,4.434c-6.993-6.117-6.993-6.117-12.164-0.833c-5.051-7.792-2.696-8.604,9.041-21.588
	c3.168,3.067,5.338,6.928,9.019,9.227c4.984,3.113,3.929-3.096,7.674-0.325c4.69,3.472,3.895-5.389,6.222-0.499
	C1721.845,795.336,1730.6,778.03,1732.346,775.421z"/>
<path d="M2285.934,172.177c-1.559-4.015,9.831-11.802,23.167-11.597c5.524,0.085,2.83,3.787,4.144,8.195
	c1.882,6.315,5.707-3.103,7.267,0.581c0.582,1.374,0.887,2.743,2.839,2.536c4.146-0.439-3.404,6.847,4.709,6.096
	c2.367-0.219,5.822-3.088,6.699,1.934c1.342,7.686,0.63,14.811-6.552,20.649c-0.185-3.642-2.5-5.776-3.763-8.469
	c-3.67-7.825-20.666-1.724-19.098-8.217c0.479-1.986-0.988-3.344-1.866-5.026c-4-7.661-11.514-5.345-17.676-6.842L2285.934,172.177z
	"/>
<path d="M1713.734,750.311c-2.234,6.594-2.027,9.593-6.489,7.917c-2.691,3.977-9.596,0.287-10.979,7.553
	c-3.131-8.7-1.08-15.486,2.045-22.133c1.029-2.188,2.498-2.726,4.512-1.008c3.61,3.078,10.71,3.927,9.536-1.981
	c-0.765-3.85,3.412-4.778,3.773-4.524c6.254,4.391,5.629-2.496,7.522-4.628c1.822-2.052,0.541-5.131,1.214-7.664
	c7.581,0.671,14.336,7.058,15.781,14.131c0.836,4.093-3.785,2.531-4.528,5.273c-1.126,4.156-3.416-4.522-6.515-0.404
	c-3.197,4.247-8.136-2.456-9.985,8.002C1718.763,755.703,1716.454,749.964,1713.734,750.311z"/>
<path d="M2397.38,130.61c-6.228-0.698-12.046-0.214-16.092,5.497c-1.004,1.418-9.365,6.873-10.977,7.279
	c-9.102,2.292-11.328,5.994-14.965,14.208c-7.179-7.663-5.406-25.558,1.249-22.984c4.317,1.67,7.078,0.472,6.333-2.016
	c-0.613-2.049,2.043-4.53,3.846-3.547c5.671,3.091,4.105-1,4.105-6.035c6.079,0.085,25.087,1.996,26.234,7.464L2397.38,130.61z"/>
<path d="M2231.571,183.33c-2.094-9.793,1.007-18.682,3.712-27.645c0.815-2.699,2.111-2.165,4.225-1.384
	c1.846,0.683,5.061,1.171,3-2.831c-1.437-2.79,1.178-3.366,2.186-2.939c6.16,2.609,4.137-1.647,3.621-6.802
	c7.909,0.504,14.889,2.581,21.79,7.179c-2.32,1.015-3.937,2.301-5.585,2.342c-12.691,0.315-5.328,14.836-14.015,15.154
	c-6.391,0.234-11.412,1.483-13.43,8.81C2236.294,178.046,2232.388,179.735,2231.571,183.33z"/>
<path d="M1815.23,845.508c-2.5-3.224,1.092-9.694-1.959-10.691c-1.811-0.592-4.03,1.714-4.663,2.714
	c-1.768,2.794-2.26,7.073-7.224,6.032c-1.197,5.187-8.219,4.417-9.308,10.465c-4.833-7.025,2.402-11.869,0.102-16.555
	c-1.397-2.846,3.635-4.164,6.078-4.244c4.858-0.159,9.92,0.641,11.687-6.027c0.391-1.475,4.17,0.361,5.51-2.319
	c1.837-3.673,17.064,15.491,10.738,17.185c-3.154,0.844-5.482,5.005-9.565,2.347c-0.209-0.136-1.095,0.768-1.666,1.188
	L1815.23,845.508z"/>
<path d="M1741.892,833.655c-4.783-2.568-9.592-5.057-7.376-12.01c0.615-1.931-2.006-3.125-1.717-5.577
	c3.95,0.463,7.527,1.885,10.566,4.127c4.754,3.507,8.233-0.486,11.546-2.163c2.99-1.514,5.131-5.097,2.986-9.257
	c-3.82-7.411,10.268-6.092,13.779,9.094c0.503,2.173-3.764,2.667-5.226,4.66c-2.592-2.275-4.569,2.612-7.187,0.632
	c-0.255-0.193-1.214-0.004-1.32,0.238c-4.414,10.064-8.899,1.006-8.918,3.295c-0.04,4.723-6.073,3.443-7.126,7.126L1741.892,833.655
	z"/>
<path d="M1576.008,745.993c-5.222-1.393-8.822,2.315-13.245,2.288c-2.908,4.764-9.047-2.039-11.944,3.96
	c0.905,2.591,4.141,3.005,6.278,4.679c-4.044,8.703-8.973,8.807-10.62,6.722c-6.039-7.648-7.391-17.651,3.332-17.666
	c5.778-0.008,4.683-2.731,10.517-8.373c0.631-0.61,2.395-1.192,2.489-1.045C1565.833,741.252,1573.187,739.288,1576.008,745.993z"/>
<path d="M2278.964,129.498c-4.341,2.506-4.552-6.232-12.894-2.506c-7.675,3.429-0.821-8.328-21.949-7.002
	c0.91-5.123,4.291-7.53,8.289-9.407c7.816-3.669,4.49,5.892,9.938,2.974c1.653-0.885,2.698-0.06,3.305,1.538
	c0.256,0.674,0.687,1.707,1.362,1.408c4.992-2.22,5.54-2.562,10.728,8.97c0.579,1.288,0.71,2.777,1.045,4.175
	C2278.787,129.648,2278.964,129.498,2278.964,129.498z"/>
<path d="M1767.587,875.469c0.27-5.515,5.452-6.311,6.385-10.366c5.847,3.891,7.653,5.741,9.442,2.944
	c2.53-3.958,4.834,3.246,7.752-2.568c3.206-6.39,14.423-4.707,17.562,2.022c-4.195,3.393-9.012,3.451-13.712,3.085
	c-4.572-0.356-7.4,3.97-12.569,3.284C1778.052,873.286,1772.99,874.832,1767.587,875.469z"/>
<path d="M1793.448,906.102c-7.448-8.53-9.624-5.605-16.008-13.604c-0.886-1.11-3.231-2.32-0.885-3.91
	c1.978-1.341,4.833-1.252,5.181,1.434c0.652,5.044,6.055,4.71,7.988,8.061C1796.144,898.021,1794.598,902.168,1793.448,906.102z"/>
<path d="M2227.167,134.321c-6.893,1.794-12.868,3.426-19.197,2.121c2.672-5.56,8.732-4.681,13.276-6.464
	C2223.698,129.016,2224.911,132.341,2227.167,134.321z"/>
<path d="M1765.873,903.112c3.542,2.605,9.641-0.862,11.641,5.048C1773.845,905.754,1768.53,907.747,1765.873,903.112z"/>
<path d="M1795.718,891.509c3.691-0.62,5.901,1.737,8.719,1.356C1800.518,894.048,1800.504,894.105,1795.718,891.509z"/>
<path d="M2278.787,129.648c0.19,0.412,0.381,0.823,0.572,1.235c-1.194-0.124-0.6-0.808-0.41-1.373
	C2278.964,129.498,2278.787,129.648,2278.787,129.648z"/>
<path d="M1634.402,636.666c-0.424,0.111-0.847,0.221-1.271,0.332c0.408-0.133,0.815-0.267,1.225-0.406
	C1634.357,636.586,1634.402,636.666,1634.402,636.666z"/>
<path d="M1010.535,359.694c0.39,1.365,1.868-0.249,0.694-0.563C1009.848,358.761,1011.15,360.694,1010.535,359.694z"/>
<path d="M2397.112,130.476c0.949-0.185,0.128,0.826,0.38-0.098c0.063-0.232-0.294-0.245-0.128,0.222
	C2397.38,130.61,2397.112,130.476,2397.112,130.476z"/>
<path d="M2566.921,428.912c0,0,0.098-0.248,0.095-0.232C2567.013,428.697,2566.921,428.912,2566.921,428.912z"/>
<path d="M2217.525,412.558c0.243,0.909-0.658,0.946-0.403,0.274c0.343-0.904-0.262,0.383,0.558-0.128
	C2217.679,412.703,2217.525,412.558,2217.525,412.558z"/>
<path d="M2481.354,182.21c0.868,0.155,1.327,0.574,0.973,1.514l0.162,0.098c-0.316-0.594-0.633-1.189-0.95-1.784
	C2481.537,182.037,2481.354,182.21,2481.354,182.21z"/>
<path d="M1556.531,646.032c0,0,0.568-0.209,0.608-0.216C1557.246,645.796,1556.635,645.997,1556.531,646.032z"/>
<path d="M2482.326,183.724l0.602,0.098C2482.632,183.817,2482.531,183.847,2482.326,183.724z"/>
<path d="M1460.772,617.115l-0.079-0.305C1460.57,617.292,1460.556,617.233,1460.772,617.115z"/>
<path d="M1191.683,310.519l0.361-0.232C1191.814,310.677,1191.853,310.672,1191.683,310.519z"/>
<path d="M2285.803,172.019c-0.66,0.706,0.694,0.478-0.267,0.58c-0.775,0.082-0.499-0.906,0.396-0.425
	C2285.934,172.177,2285.803,172.019,2285.803,172.019z"/>
<path d="M1432.325,561.34l-0.236,0.397C1432.173,561.1,1432.186,561.233,1432.325,561.34z"/>
<path d="M1367.598,314.342c0.332-0.908-0.758-0.412,0.197-0.477c0.288-0.02,0.193,0.45-0.375,0.515
	C1367.392,314.384,1367.598,314.342,1367.598,314.342z"/>
<path d="M1741.9,833.82c-0.004-0.085-0.008-0.17-0.01-0.21C1741.892,833.655,1741.9,833.82,1741.9,833.82z"/>
<path d="M1814.958,845.602c0.065-0.125,0.13-0.25,0.196-0.375c-0.097,0.009-0.193,0.018-0.29,0.026
	c0.126,0.076,0.251,0.151,0.372,0.24C1815.23,845.508,1814.958,845.602,1814.958,845.602z"/>
<path d="M2247.925,397.497l-0.07,0.635C2247.848,397.861,2247.807,397.69,2247.925,397.497z"/>
<path d="M1480.201,533.738c0.965,0.053-0.13,0.799,0.395-0.003c0.153-0.233-0.175-0.346-0.273,0.139
	C1480.327,533.885,1480.201,533.738,1480.201,533.738z"/>
<path d="M1548.655,651.176c0.927-0.273,0.31,0.785,0.444-0.158c0.043-0.305-0.373-0.264-0.198,0.278
	C1548.911,651.306,1548.655,651.176,1548.655,651.176z"/>
</svg>
