<?xml version="1.0" encoding="UTF-8"?>
<!DOCTYPE svg PUBLIC "-//W3C//DTD SVG 1.1//EN" "http://www.w3.org/Graphics/SVG/1.1/DTD/svg11.dtd">
<svg version="1.1" id="Layer_1" xmlns="http://www.w3.org/2000/svg" xmlns:xlink="http://www.w3.org/1999/xlink" x="0px" y="0px" viewBox="0 0 1920 1234" style="enable-background:new 0 0 1920 1234;" xml:space="preserve">
<style type="text/css">
	.st0{fill:#030303;}
	.st1{fill:#FAC006;}
</style>
<g>
	<rect class="st0" width="1920" height="1234"/>
	<path class="st1" d="M1288.124,78.365C995.74-77.783,625.072,20.136,460.214,297.073s-61.477,628.022,230.907,784.17   s663.052,58.229,827.91-218.708S1580.508,234.513,1288.124,78.365z"/>
	<path class="st0" d="M1650.524,1197c-21-28-59-37-70-72c-4-13,1-27-5-40c-7-15-21-23-31-38c-16-22-1-44,7-65   c1.916-7.664-20.831-46.818-22.49-44.04c-0.08-3.01-0.51-5.98-1.28-8.87c-24.307-14.993-20.265-21.531-28.76-31.57   c-5.54-4.01-12.66-5.57-17.63-10.39c-5.58-6.84-4.03-17.14-10.28-23.6c-6.2-5.78-15.71-5.58-22-11.27c-1.74-2.3-2.35-5.34-4.53-7.3   c-2.68-2.46-5.79-4.39-8.68-6.57c-0.021-0.496,5.03-180.35,5.03-180.35c-4.958-15.678-21.512-77.363-26.28-93.11   c-34.568,113.022-28.094,93.894-28.6,118.32c-7.96,0.57-15.89,1.6-23.84,2.14c0.177-18.03,1.835-238.892,1.97-245.42   c1.88-7.8,3.64-15.66,4.04-23.71c-0.9-0.15-2.7-0.44-3.6-0.59c-2.666-10.626-39.772-150.236-42.7-160.96   c-1.748,5.48-42.842,157.021-43.02,160.88c-1.68,0.1-3.39,0.19-5.04,0.29c1.77,9.68,5.77,19.09,5.22,29.08   c-0.085,94.918,1.044,62.504-4.4,85.14c-18.898,57.239-14.229,43.327-14.96,76.66c-25.78-16.973-17.402-8.48-35.16-71.18   c-11.251,51.214-7.525,54.05-35.77,75.81c-1.948-63.661,5.3-17.377-36.19-163.54c-38.494,147.814-27.012,107.387-27.19,241.11   c-0.31,12.67,1.01,25.39,0.26,38.02c-22.845,61.676-19.125,24.744-18.91,111.39c-20.424,1.337-20.743,8.102-33.11,11.23   c-5.89,1.28-9.08,7.51-15.07,8.54c-6.22,1.84-13.65,1.58-18.57,6.35c-6.7,8.91-10.66,19.5-13.31,30.24   c-2.56,2.97-4.82,6.2-7.61,8.96c-4.93,4.66-12.95,3.18-17.7,8.13c-39.553,39.449-14.599,41.794-59.77,49.24   c-29.066,3.772-69.996,31.612-75.41,39.81c-5.98,9.79-10.01,20.89-17.89,29.45c-6.54,2.88-12.87,6.19-19.45,8.97   c-4.64-0.03-9.2,0.66-13.75,1.39c-8.321,6.975-16.307,24.538-21.54,36.59c-5.302,16.772-2.689,37.639-28.22,46.31   c-8.84,2.82-18.097,21.927-23.37,31.98c-1.252-0.207-2.508-0.309-3.765-0.361c-0.541,1.637-1.061,3.266-1.675,4.801   c-3,7-15,8-16,14c-7.615,24.747-23.381,40.438-37.817,60h970.545C1653.481,1208.63,1659.879,1209.473,1650.524,1197z"/>
	<path class="st0" d="M580.839,205.108c22.273-11.252,31.685-10.295,47.14-4.35c-0.42,4.61,1.47,8.86,3.78,12.71   c-0.51,2.27-0.98,4.54-1.46,6.81c2.38-0.52,4.74-1.27,7.2-1.43c2.98,1.41,5.61,3.63,8.99,4.12c3.75,0.56,5,4.68,6.6,7.55   c1.155-14.455-0.927-2.824,4.87-17.81c2.79-0.33,4.96,1.8,6.9,3.47c14.034,13.953,16.479,42.677,18.18,56.39   c7.58,10.34,16.09,20.23,21.58,31.9c5.22-9.77,10.95-19.28,16.36-28.94c-1.85-5.323-15.64-29.991-2.46-44.31   c-12.15-4.34-19.22-16.23-23.15-27.84c-0.67-3.28-4.13-4.38-6.51-6.15c-31.399-21.17-33.45-49.725-35.07-57.89   c-9.292,20.027-24.182,16.939-32.11,16.46c-7.572,13.251-15.534,12.388-24.24,4.97c-7.458,6.985-9.859,6.782-20.07,6.33   c0.138-0.129,0.279-0.256,0.417-0.385l-30.813-2.485l8.493,24.644c0.014-0.011,0.028-0.023,0.042-0.034   C560.19,190.445,577.318,198.111,580.839,205.108z M648.809,215.227c0.26,1.3,0.22,2.63,0.27,3.95c-1.43-0.39-2.84-0.82-4.25-1.25   c-0.05-1.43-0.07-2.86-0.07-4.29C646.149,213.997,647.879,213.887,648.809,215.227z M636.679,208.578c1.42,0.39,3.11,0.4,4.14,1.63   c0.22,1.18,0.26,2.37,0.38,3.57c-0.74,0.07-2.21,0.21-2.95,0.28C637.129,212.417,636.559,210.568,636.679,208.578z"/>
	<path class="st0" d="M960.36,65.55c-1.26-0.56-4.43-1.73-1.97-3.09c0.63,0.52,1.9,1.56,2.53,2.09c14.97,3.37,30.07,6.16,45.12,9.14   c7.988,20.652,22.531,44.104,44.84,43.8c-8.366,17.769,1.257,40.606,9.79,53.66c-6.998,36.698,1.279,72.352,28.19,100.73   c-23.383-6.01-38.892,2.465-46.78,18.93c-7.47-0.65-16-2.02-22.41,2.87c-5.73,4.31-6.68,12.06-6.23,18.73   c-18.739-0.319-29.019,16.209-31.44,34.58c-15.044-4.337-32.747-10.294-43.98,1.81c5.057-12.647,18.356-47.664,12.36-59.99   c22.908-8.441,44.61-23.23,48.36-47.28c-5.64-2.79-7.89-9.11-9.64-14.72c-2.89-1.71-5.95-3.11-8.87-4.75   c2.86-2.42,6.02-4.45,8.95-6.79c0.09-5.05,0.51-10.58,4.35-14.33c0.51-4.54-1.25-8.81-2.66-13.01c2.64,2.46,5.27,4.94,7.96,7.35   c5.53,0.45,10.73,2.38,15.8,4.48c14.639-28.138-40.728-79.145-41.68-84.93C969.51,98.23,965.98,81.57,960.36,65.55 M997.36,204.62   c-0.38,1.76-1.23,3.76-0.04,5.42c0.67,2.24,3.33,1.41,5.1,1.59c0.64-3.05,0.44-6.22-2.31-8.14   C999.18,203.87,998.27,204.24,997.36,204.62 M995.59,217.1c-1.02,2.47-0.94,5.04,0.08,7.49c1.59,0.05,3.19,0.05,4.8,0   c0.02-2.34,0.8-5.21-1.23-6.97C998.03,217.31,996.79,217.23,995.59,217.1z"/>
	<path class="st0" d="M815.48,149.3c1.75-2.74,4.16-4.97,6.39-7.31c1.36,4.7,5.08,8.86,4.49,13.97c-0.22,5.3-0.48,11.21,3.04,15.62   c2.41,0.52,2.7-2.98,3.81-4.47c0.13,0.5,0.37,1.52,0.5,2.02c1.59,0.88,3.18,1.75,4.82,2.56c0.26,2.15,0.59,4.29,0.91,6.44   c4.3,2,9.09,1.89,13.66,1c2.7,3.18,6.01,5.75,9.63,7.81c-2.98,1.01-5.16,3.27-7.17,5.58c-1.98-1.2-4.09-2.16-6.28-2.86   c-2.54,1.71-4.98,0.49-7.16-1.06c-9.126,5.409-5.656-1.914-14.54,5.21c0.61-7.84-3.11-15.23-8.7-20.52   c-0.54-3.93-2.09-7.68-5.03-10.42C817.26,158.96,815.91,153.92,815.48,149.3z"/>
	<path class="st0" d="M607.3,379.05c16.404,10.342,51.889,29.485,69.79,28.39c0.75-0.49,1.51-0.97,2.29-1.45   c8.982,40.909,21.367,53.337,39.41,65.17c3.29,2.12,6.68,4.41,10.68,4.87c4.59-6.18,12.72-7.94,19.95-8.75   c2.84-3.31,5.32-6.9,7.83-10.46c2.27,4.09,4.27,8.33,6.44,12.48c17.12,4.214,12.232,5.172,18.52,8.91   c5.3,1.09,10.64-0.32,15.84-1.33c-3.69,3.03-7.56,5.85-11.16,8.99c-1.86,6.08-3.75,12.53-8.33,17.18   c-0.06,0.39-0.17,1.18-0.23,1.57c32.179,21.917,107.047-32.818,111.55-35.05c26.825-2.291,60.897-2.271,71.05-9.3   c-5.838,7.875-20.849,51.737-22.95,58.07c-27.087,6.618-61.167,19.927-63.82,47.69c-19.233-12.909-46.968-7.815-68.23,1.09   c-4.856,2.11-62.543-30.5-132.64,15.94c4.93-10.24,7.24-21.66,5.96-33.01c-0.12,0.6-0.23,1.2-0.33,1.8   c-1.21-12.86-9.75-23.63-19.69-31.24c0.564-3.947,9.535-25.851-5.6-35.2c-4.77-3.22-10.58-3.99-16.1-5.03   c4.951-22.375-13.703-38.076-35.61-45.6c-1.62-0.36-0.41-2.07-0.09-2.96C610.178,415.396,619.091,393.347,607.3,379.05    M749.15,478.95c1.34,2.06,3.04,4.41,5.9,3.86c2.77,0.49,4.46-1.82,5.82-3.83c-1.53-1.76-3.19-4.09-5.87-3.61   C752.32,474.89,750.75,477.3,749.15,478.95 M765.94,485.22c1.09,3.42,5.43,2.81,8.21,2.29c1.04-1.06,1.82-2.33,2.67-3.55   c-1.13-1.18-2.27-2.34-3.43-3.47c-1.62,0-3.22-0.01-4.82,0C767.55,481.91,764.92,483.15,765.94,485.22z"/>
	<path class="st0" d="M516.82,450.79c6.54,1.07,12.98-1.53,19.07-3.61c-2.08,4.57-1.15,9.55,0.13,14.18   c-8.073,2.514-9.338,2.846-11.93,10.15c-6.875,1.709-6.439,0.926-7.57,9.69c-3.9,3.737-8.273,5.609-6.19,15.68   c-16.505-15.659-31.501-7.844-36.8-11.58c-4.45-2.66-9.69-3.44-14.74-2.39c-0.75-7.63-7.97-12.1-14.43-14.69   c-1.28-5.24-2.08-10.58-3.1-15.87c13.805,4.961,16.702,3.3,20.22,7.15c6.74,6.57,15.06,13.4,25.06,12.85   c-0.74-2.84-1.52-5.71-3.16-8.17c1.15,0.06,2.3,0.12,3.46,0.18c1.72-0.57,3.48-1,5.25-1.39c0.66-0.94,1.32-1.88,1.98-2.81   c0.59,0.93,1.18,1.87,1.79,2.82c1.91,1.06,3.73,2.25,5.47,3.58C510.442,462.927,511.942,460.802,516.82,450.79 M492.36,466.06   c-0.1,1.79,2.94,1.9,2.86,0.06C495.23,464.34,492.26,464.17,492.36,466.06z"/>
	<path class="st0" d="M1068.59,469.53c2.16-2.58,4.3-5.17,6.53-7.7c1.33,3.77,3.57,7.22,4.54,11.1c-0.15,6.33-0.66,13.07,2.91,18.67   c0.4,0.01,1.19,0.03,1.59,0.03c0.74-1.14,1.5-2.27,2.27-3.39c1.82,1.39,3.76,2.62,5.82,3.65c0.05,1.94,0.14,3.89,0.23,5.84   c4.24,2.69,9.23,1.96,13.96,1.68c2.93,2.82,6.04,5.45,9.59,7.5c-2.88,1.16-5.19,3.2-6.98,5.69c-2.95-2.17-6.6-3.67-10.12-1.83   c-0.97-0.75-1.94-1.5-2.89-2.24c-10.608,4.878-5.321-1.082-15.16,4.75c-0.431-10.93-1.912-11.59-8.22-19.79   c-1.22-3.79-2.24-7.84-5.45-10.52C1070.26,479.11,1069.86,474,1068.59,469.53 M1087.26,491.28   C1087.83,491.8,1087.83,491.8,1087.26,491.28 M1089.31,493.26C1089.73,493.9,1089.73,493.9,1089.31,493.26z"/>
	<path class="st0" d="M1046.78,649.17c7.82-1.76,15.4-4.42,22.91-7.19c-8.353,7.911-4.307,19.33-1.7,31.03   c-13.136,1.351-23.403,7.7-24.67,21.53c-18.324-1.005-15.849,12.97-15.73,20.2c-7.07,3.12-12.68,9.5-14.44,17.07   c-1.35,5.08-0.36,10.34,0.58,15.4c-16.6-16.93-41.39-24.82-64.76-21.7c-2.86,0.2-6.04,0.98-8.52-0.93   c-10.29-5.99-23.31-11.04-34.97-5.95c0-16.465-15.896-25.692-30.67-32.39c-1.67-10.91-3.87-21.74-5.83-32.6   c11.22,4.72,23.25,7.05,35.05,9.88c2.56,0.49,4.27,2.65,6.14,4.3c9.77,9.52,20.4,18.55,32.99,24.12   c6.47,2.69,13.84,4.96,20.74,2.41c-5.576-13.426,1.139-5.704-8-17.01c2.78,0.83,5.58,1.62,8.45,2.12   c3.03-2.53,6.91-3.35,10.79-3.26c1.64-2.06,3.26-4.14,4.9-6.2c0.98,2.05,1.97,4.1,2.94,6.16c4.24,1.45,8.58,3.38,11.01,7.38   c14.421-4.48,24.429-10.847,33.39-33.38C1033.77,652.18,1040.42,650.46,1046.78,649.17 M976.59,680.44   c-0.1,1.12-0.18,2.25-0.24,3.39c1.74,0.32,3.5,0.58,5.27,0.78c-0.05-1.33-0.09-2.64-0.14-3.95   C979.84,680.56,978.21,680.48,976.59,680.44 M967.48,681.36c-0.05,1.37-0.07,2.75-0.05,4.13c1.64,0.06,3.31,0.1,4.98,0.11   c0.03-1.07,0.06-2.13,0.11-3.19C970.83,682.04,969.15,681.68,967.48,681.36z"/>
	<path class="st0" d="M545.61,660.31c6.703,1.961,20.988,8.27,30.63-0.07c-5.071,12.503-11.602,28.94-9.52,41.74   c-22.919,7.953-29.778,18.42-34.54,32.09c3.59,2.67,5.81,6.63,6.75,10.97c2.09,1.21,4.18,2.42,6.26,3.67   c-2.03,1.44-4.29,2.66-5.99,4.51c-4.821,18.393-4.318,6.686-2.28,18.99c-6.467-5.666-0.821-3.354-17.05-8.15   c-6.007,26.12,27.586,54.687,29,59.9c2.89,12.54,4.13,25.74,9.87,37.41l-1.12-1.46c-10.74-1.98-21.27-4.97-32.07-6.69   c-6.789-14.824-14.35-31.046-31.44-31.81c6.951-15.63-3.362-31.713-5.86-37.52c-0.548-4.602,9.63-41.936-19.11-71.75   c14.57,3.582,26.41,0.426,33.13-12.77c12.749,0.758,20.71,0.557,20.54-14.81C537.184,683.839,542.457,674.32,545.61,660.31    M530.68,746.55c0.01,1.57,0.05,3.16,0.1,4.75c1.27,0.15,2.54,0.28,3.83,0.42c0-1.76-0.03-3.5-0.11-5.24   C533.21,746.48,531.94,746.5,530.68,746.55 M529.54,755.09c-0.15,1.85-0.2,3.72-0.15,5.59c1.24-0.02,2.49-0.05,3.75-0.12   c0.12-1.16,0.26-2.31,0.41-3.45C532.26,756.34,530.92,755.66,529.54,755.09z"/>
	<path class="st0" d="M781.1,726.6c6.47,0.48,12.74-1.44,18.75-3.62c-0.86,4.69-0.66,9.52,0.74,14.09   c-9.631,2.275-10.099,4.645-12.05,10.18c-8.129,1.004-7.008,3.807-7.15,9.65c-7.82,5.374-7.136,8.054-6.9,15.32   c-8.64-8.63-21.56-11.79-33.42-9.74c-5.2-3.17-11.46-5.9-17.59-3.79c-0.94-7.9-8.26-12.36-14.86-15.27   c-0.87-5.12-1.66-10.25-2.92-15.28c25.271,7.811,11.104,0.421,24.87,11.21c5.69,4.7,12.58,9.24,20.33,8.33   c-0.64-2.88-1.29-5.85-3.27-8.14c3.13,0.61,6.18-0.35,9.15-1.21c0.6-0.74,1.2-1.47,1.82-2.19c1.77,2.51,4.49,4,6.89,5.83   C773.37,740.58,778.46,733.67,781.1,726.6 M752.9,741.51c-0.53,1.59,0.03,2.15,1.68,1.66C755.09,741.55,754.53,740.99,752.9,741.51    M757.01,740.84c-1.13,1.49,1.55,2.88,2.53,1.59C760.64,740.89,758,739.47,757.01,740.84z"/>
</g>
</svg>