G04 #@! TF.GenerationSoftware,KiCad,Pcbnew,(5.1.5-0-10_14)*
G04 #@! TF.CreationDate,2020-03-15T18:41:56-04:00*
G04 #@! TF.ProjectId,hp_breakout,68705f62-7265-4616-9b6f-75742e6b6963,rev?*
G04 #@! TF.SameCoordinates,Original*
G04 #@! TF.FileFunction,Copper,L1,Top*
G04 #@! TF.FilePolarity,Positive*
%FSLAX46Y46*%
G04 Gerber Fmt 4.6, Leading zero omitted, Abs format (unit mm)*
G04 Created by KiCad (PCBNEW (5.1.5-0-10_14)) date 2020-03-15 18:41:56*
%MOMM*%
%LPD*%
G04 APERTURE LIST*
%ADD10R,4.000000X2.200000*%
%ADD11O,2.200000X4.000000*%
%ADD12O,4.000000X2.200000*%
%ADD13O,1.700000X1.700000*%
%ADD14R,1.700000X1.700000*%
%ADD15C,0.250000*%
G04 APERTURE END LIST*
D10*
X48604000Y-42319000D03*
D11*
X55904000Y-41819000D03*
D12*
X51504000Y-35219000D03*
X52704000Y-32519000D03*
D11*
X44704000Y-37719000D03*
D10*
X48641000Y-58801000D03*
D11*
X55941000Y-58301000D03*
D12*
X51541000Y-51701000D03*
X52741000Y-49001000D03*
D11*
X44741000Y-54201000D03*
D10*
X79629000Y-49149000D03*
D11*
X72329000Y-49649000D03*
D12*
X76729000Y-56249000D03*
X75529000Y-58949000D03*
D11*
X83529000Y-53749000D03*
D10*
X48641000Y-108331000D03*
D11*
X55941000Y-107831000D03*
D12*
X51541000Y-101231000D03*
X52741000Y-98531000D03*
D11*
X44741000Y-103731000D03*
D10*
X79629000Y-65659000D03*
D11*
X72329000Y-66159000D03*
D12*
X76729000Y-72759000D03*
X75529000Y-75459000D03*
D11*
X83529000Y-70259000D03*
D10*
X79629000Y-82169000D03*
D11*
X72329000Y-82669000D03*
D12*
X76729000Y-89269000D03*
X75529000Y-91969000D03*
D11*
X83529000Y-86769000D03*
D10*
X48641000Y-75311000D03*
D11*
X55941000Y-74811000D03*
D12*
X51541000Y-68211000D03*
X52741000Y-65511000D03*
D11*
X44741000Y-70711000D03*
D10*
X79629000Y-32639000D03*
D11*
X72329000Y-33139000D03*
D12*
X76729000Y-39739000D03*
X75529000Y-42439000D03*
D11*
X83529000Y-37239000D03*
D10*
X79629000Y-98679000D03*
D11*
X72329000Y-99179000D03*
D12*
X76729000Y-105779000D03*
X75529000Y-108479000D03*
D11*
X83529000Y-103279000D03*
D10*
X48641000Y-91821000D03*
D11*
X55941000Y-91321000D03*
D12*
X51541000Y-84721000D03*
X52741000Y-82021000D03*
D11*
X44741000Y-87221000D03*
D13*
X67310000Y-48895000D03*
X67310000Y-51435000D03*
X67310000Y-53975000D03*
X67310000Y-56515000D03*
D14*
X67310000Y-59055000D03*
X60960000Y-98425000D03*
D13*
X60960000Y-100965000D03*
X60960000Y-103505000D03*
X60960000Y-106045000D03*
X60960000Y-108585000D03*
X67310000Y-65405000D03*
X67310000Y-67945000D03*
X67310000Y-70485000D03*
X67310000Y-73025000D03*
D14*
X67310000Y-75565000D03*
X67310000Y-92075000D03*
D13*
X67310000Y-89535000D03*
X67310000Y-86995000D03*
X67310000Y-84455000D03*
X67310000Y-81915000D03*
X60960000Y-75565000D03*
X60960000Y-73025000D03*
X60960000Y-70485000D03*
X60960000Y-67945000D03*
D14*
X60960000Y-65405000D03*
X67310000Y-42545000D03*
D13*
X67310000Y-40005000D03*
X67310000Y-37465000D03*
X67310000Y-34925000D03*
X67310000Y-32385000D03*
X67310000Y-98425000D03*
X67310000Y-100965000D03*
X67310000Y-103505000D03*
X67310000Y-106045000D03*
D14*
X67310000Y-108585000D03*
X60960000Y-81915000D03*
D13*
X60960000Y-84455000D03*
X60960000Y-86995000D03*
X60960000Y-89535000D03*
X60960000Y-92075000D03*
X60960000Y-59055000D03*
X60960000Y-56515000D03*
X60960000Y-53975000D03*
X60960000Y-51435000D03*
D14*
X60960000Y-48895000D03*
X60960000Y-32385000D03*
D13*
X60960000Y-34925000D03*
X60960000Y-37465000D03*
X60960000Y-40005000D03*
X60960000Y-42545000D03*
D15*
X48604000Y-40969000D02*
X50838000Y-38735000D01*
X48604000Y-42319000D02*
X48604000Y-40969000D01*
X59690000Y-38735000D02*
X60960000Y-40005000D01*
X50838000Y-38735000D02*
X59690000Y-38735000D01*
X60234000Y-41819000D02*
X60960000Y-42545000D01*
X55904000Y-41819000D02*
X60234000Y-41819000D01*
X51504000Y-35219000D02*
X54269000Y-35219000D01*
X56515000Y-37465000D02*
X60960000Y-37465000D01*
X54269000Y-35219000D02*
X56515000Y-37465000D01*
X54954000Y-32519000D02*
X57360000Y-34925000D01*
X52704000Y-32519000D02*
X54954000Y-32519000D01*
X57360000Y-34925000D02*
X60960000Y-34925000D01*
X70910000Y-56515000D02*
X67310000Y-56515000D01*
X73316000Y-58921000D02*
X70910000Y-56515000D01*
X75566000Y-58921000D02*
X73316000Y-58921000D01*
X71755000Y-53975000D02*
X67310000Y-53975000D01*
X74001000Y-56221000D02*
X71755000Y-53975000D01*
X76766000Y-56221000D02*
X74001000Y-56221000D01*
X68036000Y-49621000D02*
X67310000Y-48895000D01*
X72366000Y-49621000D02*
X68036000Y-49621000D01*
X79666000Y-50471000D02*
X77432000Y-52705000D01*
X79666000Y-49121000D02*
X79666000Y-50471000D01*
X77432000Y-52705000D02*
X68580000Y-52705000D01*
X68580000Y-52705000D02*
X67310000Y-51435000D01*
X48604000Y-107009000D02*
X50838000Y-104775000D01*
X48604000Y-108359000D02*
X48604000Y-107009000D01*
X50838000Y-104775000D02*
X59690000Y-104775000D01*
X59690000Y-104775000D02*
X60960000Y-106045000D01*
X60234000Y-107859000D02*
X60960000Y-108585000D01*
X55904000Y-107859000D02*
X60234000Y-107859000D01*
X56515000Y-103505000D02*
X60960000Y-103505000D01*
X54269000Y-101259000D02*
X56515000Y-103505000D01*
X51504000Y-101259000D02*
X54269000Y-101259000D01*
X57360000Y-100965000D02*
X60960000Y-100965000D01*
X54954000Y-98559000D02*
X57360000Y-100965000D01*
X52704000Y-98559000D02*
X54954000Y-98559000D01*
X70910000Y-73025000D02*
X67310000Y-73025000D01*
X73316000Y-75431000D02*
X70910000Y-73025000D01*
X75566000Y-75431000D02*
X73316000Y-75431000D01*
X71755000Y-70485000D02*
X67310000Y-70485000D01*
X74001000Y-72731000D02*
X71755000Y-70485000D01*
X76766000Y-72731000D02*
X74001000Y-72731000D01*
X68036000Y-66131000D02*
X67310000Y-65405000D01*
X72366000Y-66131000D02*
X68036000Y-66131000D01*
X79666000Y-66981000D02*
X77432000Y-69215000D01*
X79666000Y-65631000D02*
X79666000Y-66981000D01*
X77432000Y-69215000D02*
X68580000Y-69215000D01*
X68580000Y-69215000D02*
X67310000Y-67945000D01*
X79666000Y-83491000D02*
X77432000Y-85725000D01*
X79666000Y-82141000D02*
X79666000Y-83491000D01*
X77432000Y-85725000D02*
X68580000Y-85725000D01*
X68580000Y-85725000D02*
X67310000Y-84455000D01*
X68036000Y-82641000D02*
X67310000Y-81915000D01*
X72366000Y-82641000D02*
X68036000Y-82641000D01*
X71755000Y-86995000D02*
X67310000Y-86995000D01*
X74001000Y-89241000D02*
X71755000Y-86995000D01*
X76766000Y-89241000D02*
X74001000Y-89241000D01*
X70910000Y-89535000D02*
X67310000Y-89535000D01*
X73316000Y-91941000D02*
X70910000Y-89535000D01*
X75566000Y-91941000D02*
X73316000Y-91941000D01*
X57360000Y-67945000D02*
X60960000Y-67945000D01*
X54954000Y-65539000D02*
X57360000Y-67945000D01*
X52704000Y-65539000D02*
X54954000Y-65539000D01*
X56515000Y-70485000D02*
X60960000Y-70485000D01*
X54269000Y-68239000D02*
X56515000Y-70485000D01*
X51504000Y-68239000D02*
X54269000Y-68239000D01*
X60234000Y-74839000D02*
X60960000Y-75565000D01*
X55904000Y-74839000D02*
X60234000Y-74839000D01*
X48604000Y-73989000D02*
X50838000Y-71755000D01*
X48604000Y-75339000D02*
X48604000Y-73989000D01*
X50838000Y-71755000D02*
X59690000Y-71755000D01*
X59690000Y-71755000D02*
X60960000Y-73025000D01*
X79666000Y-33961000D02*
X77432000Y-36195000D01*
X79666000Y-32611000D02*
X79666000Y-33961000D01*
X77432000Y-36195000D02*
X68580000Y-36195000D01*
X68580000Y-36195000D02*
X67310000Y-34925000D01*
X68036000Y-33111000D02*
X67310000Y-32385000D01*
X72366000Y-33111000D02*
X68036000Y-33111000D01*
X71755000Y-37465000D02*
X67310000Y-37465000D01*
X74001000Y-39711000D02*
X71755000Y-37465000D01*
X76766000Y-39711000D02*
X74001000Y-39711000D01*
X70910000Y-40005000D02*
X67310000Y-40005000D01*
X73316000Y-42411000D02*
X70910000Y-40005000D01*
X75566000Y-42411000D02*
X73316000Y-42411000D01*
X70910000Y-106045000D02*
X67310000Y-106045000D01*
X73316000Y-108451000D02*
X70910000Y-106045000D01*
X75566000Y-108451000D02*
X73316000Y-108451000D01*
X71755000Y-103505000D02*
X67310000Y-103505000D01*
X74001000Y-105751000D02*
X71755000Y-103505000D01*
X76766000Y-105751000D02*
X74001000Y-105751000D01*
X68036000Y-99151000D02*
X67310000Y-98425000D01*
X72366000Y-99151000D02*
X68036000Y-99151000D01*
X79666000Y-100001000D02*
X77432000Y-102235000D01*
X79666000Y-98651000D02*
X79666000Y-100001000D01*
X77432000Y-102235000D02*
X68580000Y-102235000D01*
X68580000Y-102235000D02*
X67310000Y-100965000D01*
X48604000Y-90499000D02*
X50838000Y-88265000D01*
X48604000Y-91849000D02*
X48604000Y-90499000D01*
X50838000Y-88265000D02*
X59690000Y-88265000D01*
X59690000Y-88265000D02*
X60960000Y-89535000D01*
X60234000Y-91349000D02*
X60960000Y-92075000D01*
X55904000Y-91349000D02*
X60234000Y-91349000D01*
X56515000Y-86995000D02*
X60960000Y-86995000D01*
X54269000Y-84749000D02*
X56515000Y-86995000D01*
X51504000Y-84749000D02*
X54269000Y-84749000D01*
X57360000Y-84455000D02*
X60960000Y-84455000D01*
X54954000Y-82049000D02*
X57360000Y-84455000D01*
X52704000Y-82049000D02*
X54954000Y-82049000D01*
X57360000Y-51435000D02*
X60960000Y-51435000D01*
X54954000Y-49029000D02*
X57360000Y-51435000D01*
X52704000Y-49029000D02*
X54954000Y-49029000D01*
X56515000Y-53975000D02*
X60960000Y-53975000D01*
X54269000Y-51729000D02*
X56515000Y-53975000D01*
X51504000Y-51729000D02*
X54269000Y-51729000D01*
X60234000Y-58329000D02*
X60960000Y-59055000D01*
X55904000Y-58329000D02*
X60234000Y-58329000D01*
X48604000Y-57479000D02*
X50838000Y-55245000D01*
X48604000Y-58829000D02*
X48604000Y-57479000D01*
X50838000Y-55245000D02*
X59690000Y-55245000D01*
X59690000Y-55245000D02*
X60960000Y-56515000D01*
M02*
