G04 #@! TF.GenerationSoftware,KiCad,Pcbnew,(5.1.5-0-10_14)*
G04 #@! TF.CreationDate,2020-03-15T18:41:56-04:00*
G04 #@! TF.ProjectId,hp_breakout,68705f62-7265-4616-9b6f-75742e6b6963,rev?*
G04 #@! TF.SameCoordinates,Original*
G04 #@! TF.FileFunction,Profile,NP*
%FSLAX46Y46*%
G04 Gerber Fmt 4.6, Leading zero omitted, Abs format (unit mm)*
G04 Created by KiCad (PCBNEW (5.1.5-0-10_14)) date 2020-03-15 18:41:56*
%MOMM*%
%LPD*%
G04 APERTURE LIST*
%ADD10C,0.050000*%
G04 APERTURE END LIST*
D10*
X85725000Y-44450000D02*
X85725000Y-31750000D01*
X42545000Y-96520000D02*
X42545000Y-109220000D01*
X85725000Y-60960000D02*
X85725000Y-48260000D01*
X42545000Y-80010000D02*
X42545000Y-92710000D01*
X85725000Y-77470000D02*
X85725000Y-64770000D01*
X42545000Y-63500000D02*
X42545000Y-76200000D01*
X85725000Y-93980000D02*
X85725000Y-81280000D01*
X42545000Y-46990000D02*
X42545000Y-59690000D01*
X85725000Y-110490000D02*
X85725000Y-97790000D01*
X85725000Y-31750000D02*
X85725000Y-30480000D01*
X42545000Y-109220000D02*
X42545000Y-110490000D01*
X85725000Y-48260000D02*
X85725000Y-46990000D01*
X42545000Y-92710000D02*
X42545000Y-93980000D01*
X85725000Y-64770000D02*
X85725000Y-63500000D01*
X42545000Y-76200000D02*
X42545000Y-77470000D01*
X85725000Y-81280000D02*
X85725000Y-80010000D01*
X42545000Y-59690000D02*
X42545000Y-60960000D01*
X85725000Y-97790000D02*
X85725000Y-96520000D01*
X65405000Y-44450000D02*
X85725000Y-44450000D01*
X62865000Y-96520000D02*
X42545000Y-96520000D01*
X65405000Y-60960000D02*
X85725000Y-60960000D01*
X62865000Y-80010000D02*
X42545000Y-80010000D01*
X65405000Y-77470000D02*
X85725000Y-77470000D01*
X62865000Y-63500000D02*
X42545000Y-63500000D01*
X65405000Y-93980000D02*
X85725000Y-93980000D01*
X62865000Y-46990000D02*
X42545000Y-46990000D01*
X65405000Y-110490000D02*
X85725000Y-110490000D01*
X85725000Y-30480000D02*
X65405000Y-30480000D01*
X42545000Y-110490000D02*
X62865000Y-110490000D01*
X85725000Y-46990000D02*
X65405000Y-46990000D01*
X42545000Y-93980000D02*
X62865000Y-93980000D01*
X85725000Y-63500000D02*
X65405000Y-63500000D01*
X42545000Y-77470000D02*
X62865000Y-77470000D01*
X85725000Y-80010000D02*
X65405000Y-80010000D01*
X42545000Y-60960000D02*
X62865000Y-60960000D01*
X85725000Y-96520000D02*
X65405000Y-96520000D01*
X65405000Y-30480000D02*
X65405000Y-44450000D01*
X62865000Y-110490000D02*
X62865000Y-96520000D01*
X65405000Y-46990000D02*
X65405000Y-60960000D01*
X62865000Y-93980000D02*
X62865000Y-80010000D01*
X65405000Y-63500000D02*
X65405000Y-77470000D01*
X62865000Y-77470000D02*
X62865000Y-63500000D01*
X65405000Y-80010000D02*
X65405000Y-93980000D01*
X62865000Y-60960000D02*
X62865000Y-46990000D01*
X65405000Y-96520000D02*
X65405000Y-110490000D01*
X62865000Y-30480000D02*
X42545000Y-30480000D01*
X62865000Y-44450000D02*
X62865000Y-30480000D01*
X42545000Y-44450000D02*
X62865000Y-44450000D01*
X42545000Y-43180000D02*
X42545000Y-44450000D01*
X42545000Y-30480000D02*
X42545000Y-43180000D01*
M02*
