G75*
%MOIN*%
%OFA0B0*%
%FSLAX25Y25*%
%IPPOS*%
%LPD*%
%AMOC8*
5,1,8,0,0,1.08239X$1,22.5*
%
%ADD10OC8,0.07400*%
%ADD11C,0.08200*%
%ADD12C,0.06400*%
%ADD13C,0.07300*%
%ADD14R,0.08200X0.08200*%
%ADD15C,0.06400*%
%ADD16C,0.07531*%
%ADD17C,0.07531*%
D10*
X0046800Y0211800D03*
X0056800Y0221800D03*
X0046800Y0231800D03*
X0131800Y0221800D03*
X0141800Y0211800D03*
X0141800Y0231800D03*
D11*
X0141800Y0261800D03*
X0151800Y0261800D03*
X0161800Y0261800D03*
X0061800Y0271800D03*
X0051800Y0271800D03*
X0041800Y0271800D03*
X0047900Y0054600D03*
X0065700Y0054600D03*
X0065700Y0029000D03*
X0047900Y0029000D03*
X0122900Y0029000D03*
X0140700Y0029000D03*
X0140700Y0054600D03*
X0122900Y0054600D03*
D12*
X0126800Y0154000D02*
X0126800Y0159600D01*
X0136800Y0159600D02*
X0136800Y0154000D01*
X0146800Y0154000D02*
X0146800Y0159600D01*
X0156800Y0159600D02*
X0156800Y0154000D01*
X0156800Y0184000D02*
X0156800Y0189600D01*
X0146800Y0189600D02*
X0146800Y0184000D01*
X0136800Y0184000D02*
X0136800Y0189600D01*
X0126800Y0189600D02*
X0126800Y0184000D01*
X0116800Y0184000D02*
X0116800Y0189600D01*
X0106800Y0189600D02*
X0106800Y0184000D01*
X0096800Y0184000D02*
X0096800Y0189600D01*
X0086800Y0189600D02*
X0086800Y0184000D01*
X0076800Y0184000D02*
X0076800Y0189600D01*
X0066800Y0189600D02*
X0066800Y0184000D01*
X0056800Y0184000D02*
X0056800Y0189600D01*
X0046800Y0189600D02*
X0046800Y0184000D01*
X0036800Y0184000D02*
X0036800Y0189600D01*
X0026800Y0189600D02*
X0026800Y0184000D01*
X0026800Y0159600D02*
X0026800Y0154000D01*
X0036800Y0154000D02*
X0036800Y0159600D01*
X0046800Y0159600D02*
X0046800Y0154000D01*
X0056800Y0154000D02*
X0056800Y0159600D01*
X0066800Y0159600D02*
X0066800Y0154000D01*
X0076800Y0154000D02*
X0076800Y0159600D01*
X0086800Y0159600D02*
X0086800Y0154000D01*
X0096800Y0154000D02*
X0096800Y0159600D01*
X0106800Y0159600D02*
X0106800Y0154000D01*
X0116800Y0154000D02*
X0116800Y0159600D01*
D13*
X0096800Y0126800D03*
X0096800Y0106800D03*
D14*
X0131800Y0261800D03*
X0031800Y0271800D03*
D15*
X0091800Y0216800D03*
X0091800Y0206800D03*
D16*
X0045165Y0096800D02*
X0038435Y0096800D01*
X0038435Y0086800D02*
X0045165Y0086800D01*
X0045165Y0076800D02*
X0038435Y0076800D01*
X0138435Y0076800D02*
X0145165Y0076800D01*
X0145165Y0086800D02*
X0138435Y0086800D01*
X0138435Y0096800D02*
X0145165Y0096800D01*
D17*
X0041800Y0066800D03*
X0041800Y0106800D03*
X0141800Y0106800D03*
X0141800Y0066800D03*
M02*
