%
M48
M72
T01C0.02756
T02C0.03200
T03C0.04000
T04C0.04331
%
T01
X96800Y106800
X96800Y126800
T02
X96800Y156800
X86800Y156800
X76800Y156800
X66800Y156800
X56800Y156800
X46800Y156800
X36800Y156800
X26800Y156800
X26800Y186800
X36800Y186800
X46800Y186800
X56800Y186800
X66800Y186800
X76800Y186800
X86800Y186800
X96800Y186800
X106800Y186800
X116800Y186800
X126800Y186800
X136800Y186800
X146800Y186800
X156800Y186800
X141800Y211800
X131800Y221800
X141800Y231800
X136800Y156800
X126800Y156800
X116800Y156800
X106800Y156800
X91800Y206800
X91800Y216800
X56800Y221800
X46800Y211800
X46800Y231800
X146800Y156800
X156800Y156800
T03
X140700Y54600
X122900Y54600
X122900Y29000
X140700Y29000
X65700Y29000
X47900Y29000
X47900Y54600
X65700Y54600
X131800Y261800
X141800Y261800
X151800Y261800
X161800Y261800
X61800Y271800
X51800Y271800
X41800Y271800
X31800Y271800
T04
X41800Y66800
X41800Y76800
X41800Y86800
X41800Y96800
X41800Y106800
X141800Y106800
X141800Y96800
X141800Y86800
X141800Y76800
X141800Y66800
M30
