G75*
%MOIN*%
%OFA0B0*%
%FSLAX25Y25*%
%IPPOS*%
%LPD*%
%AMOC8*
5,1,8,0,0,1.08239X$1,22.5*
%
%ADD10C,0.00000*%
%ADD11C,0.00400*%
%ADD12C,0.00600*%
%ADD13C,0.00100*%
%ADD14C,0.00700*%
%ADD15C,0.00800*%
%ADD16C,0.00500*%
%ADD17C,0.00200*%
D10*
X0001800Y0001800D02*
X0001800Y0291761D01*
X0185501Y0291761D01*
X0185501Y0001800D01*
X0001800Y0001800D01*
D11*
X0009298Y0187000D02*
X0010833Y0187000D01*
X0011600Y0187767D01*
X0011600Y0190069D01*
X0011600Y0191604D02*
X0006996Y0191604D01*
X0008531Y0192371D02*
X0008531Y0193906D01*
X0009298Y0194673D01*
X0011600Y0194673D01*
X0010833Y0196208D02*
X0010065Y0196975D01*
X0010065Y0199277D01*
X0009298Y0199277D02*
X0011600Y0199277D01*
X0011600Y0196975D01*
X0010833Y0196208D01*
X0008531Y0196975D02*
X0008531Y0198510D01*
X0009298Y0199277D01*
X0008531Y0200812D02*
X0011600Y0200812D01*
X0010065Y0200812D02*
X0008531Y0202346D01*
X0008531Y0203114D01*
X0006996Y0204648D02*
X0006996Y0205416D01*
X0011600Y0205416D01*
X0011600Y0206183D02*
X0011600Y0204648D01*
X0010833Y0207718D02*
X0009298Y0207718D01*
X0008531Y0208485D01*
X0008531Y0210020D01*
X0009298Y0210787D01*
X0010065Y0210787D01*
X0010065Y0207718D01*
X0010833Y0207718D02*
X0011600Y0208485D01*
X0011600Y0210020D01*
X0011600Y0212322D02*
X0011600Y0214624D01*
X0010833Y0215391D01*
X0010065Y0214624D01*
X0010065Y0213089D01*
X0009298Y0212322D01*
X0008531Y0213089D01*
X0008531Y0215391D01*
X0007763Y0216926D02*
X0006996Y0217693D01*
X0006996Y0219227D01*
X0007763Y0219995D01*
X0009298Y0219995D01*
X0010065Y0219227D01*
X0008531Y0219227D01*
X0008531Y0217693D01*
X0010065Y0217693D01*
X0010065Y0219227D01*
X0010833Y0219995D02*
X0011600Y0219227D01*
X0011600Y0217693D01*
X0010833Y0216926D01*
X0007763Y0216926D01*
X0008531Y0221529D02*
X0011600Y0221529D01*
X0010065Y0221529D02*
X0008531Y0223064D01*
X0008531Y0223831D01*
X0008531Y0226133D02*
X0008531Y0227668D01*
X0009298Y0228435D01*
X0011600Y0228435D01*
X0011600Y0226133D01*
X0010833Y0225366D01*
X0010065Y0226133D01*
X0010065Y0228435D01*
X0008531Y0229970D02*
X0008531Y0232272D01*
X0009298Y0233039D01*
X0010833Y0233039D01*
X0011600Y0232272D01*
X0011600Y0229970D01*
X0006996Y0229970D01*
X0008531Y0234574D02*
X0008531Y0235341D01*
X0011600Y0235341D01*
X0011600Y0234574D02*
X0011600Y0236109D01*
X0010833Y0237643D02*
X0011600Y0238410D01*
X0011600Y0240712D01*
X0006996Y0240712D01*
X0008531Y0240712D02*
X0008531Y0238410D01*
X0009298Y0237643D01*
X0010833Y0237643D01*
X0006996Y0235341D02*
X0006229Y0235341D01*
X0008531Y0243014D02*
X0008531Y0244549D01*
X0009298Y0245316D01*
X0011600Y0245316D01*
X0011600Y0243014D01*
X0010833Y0242247D01*
X0010065Y0243014D01*
X0010065Y0245316D01*
X0010833Y0246851D02*
X0008531Y0246851D01*
X0010833Y0246851D02*
X0011600Y0247618D01*
X0011600Y0249920D01*
X0008531Y0249920D01*
X0009298Y0251455D02*
X0008531Y0252222D01*
X0008531Y0254524D01*
X0008531Y0256059D02*
X0008531Y0256826D01*
X0011600Y0256826D01*
X0011600Y0256059D02*
X0011600Y0257593D01*
X0010833Y0259128D02*
X0011600Y0259895D01*
X0011600Y0261430D01*
X0010833Y0262197D01*
X0009298Y0262197D01*
X0008531Y0261430D01*
X0008531Y0259895D01*
X0009298Y0259128D01*
X0010833Y0259128D01*
X0010833Y0263732D02*
X0010833Y0264499D01*
X0011600Y0264499D01*
X0011600Y0263732D01*
X0010833Y0263732D01*
X0010833Y0266034D02*
X0009298Y0266034D01*
X0008531Y0266801D01*
X0008531Y0269103D01*
X0009298Y0270638D02*
X0010833Y0270638D01*
X0011600Y0271405D01*
X0011600Y0272940D01*
X0010833Y0273707D01*
X0009298Y0273707D01*
X0008531Y0272940D01*
X0008531Y0271405D01*
X0009298Y0270638D01*
X0008531Y0275242D02*
X0008531Y0276009D01*
X0009298Y0276777D01*
X0008531Y0277544D01*
X0009298Y0278311D01*
X0011600Y0278311D01*
X0011600Y0276777D02*
X0009298Y0276777D01*
X0008531Y0275242D02*
X0011600Y0275242D01*
X0011600Y0269103D02*
X0011600Y0266801D01*
X0010833Y0266034D01*
X0006996Y0256826D02*
X0006229Y0256826D01*
X0006996Y0254524D02*
X0011600Y0254524D01*
X0011600Y0252222D01*
X0010833Y0251455D01*
X0009298Y0251455D01*
X0008531Y0192371D02*
X0009298Y0191604D01*
X0008531Y0190069D02*
X0008531Y0187767D01*
X0009298Y0187000D01*
D12*
X0020846Y0204600D02*
X0020846Y0206802D01*
X0021580Y0207536D01*
X0023048Y0207536D01*
X0023782Y0206802D01*
X0023782Y0204600D01*
X0025250Y0204600D02*
X0020846Y0204600D01*
X0020846Y0209204D02*
X0025250Y0209204D01*
X0025250Y0212140D01*
X0025250Y0213808D02*
X0022314Y0213808D01*
X0020846Y0215276D01*
X0022314Y0216744D01*
X0025250Y0216744D01*
X0023048Y0216744D02*
X0023048Y0213808D01*
X0021580Y0218412D02*
X0023048Y0219880D01*
X0025250Y0219880D01*
X0023048Y0219880D02*
X0021580Y0221348D01*
X0020846Y0221348D01*
X0020846Y0218412D02*
X0021580Y0218412D01*
X0025984Y0223016D02*
X0025984Y0225952D01*
X0025250Y0227620D02*
X0020846Y0227620D01*
X0020846Y0229821D01*
X0021580Y0230555D01*
X0023048Y0230555D01*
X0023782Y0229821D01*
X0023782Y0227620D01*
X0023782Y0229088D02*
X0025250Y0230555D01*
X0025250Y0232224D02*
X0022314Y0232224D01*
X0020846Y0233691D01*
X0022314Y0235159D01*
X0025250Y0235159D01*
X0023048Y0235159D02*
X0023048Y0232224D01*
X0020846Y0236827D02*
X0020846Y0239763D01*
X0020846Y0238295D02*
X0025250Y0238295D01*
X0025250Y0241431D02*
X0025250Y0244367D01*
X0023048Y0242899D02*
X0023048Y0241431D01*
X0020846Y0241431D02*
X0020846Y0244367D01*
X0020846Y0241431D02*
X0025250Y0241431D01*
X0024730Y0077816D02*
X0023662Y0077816D01*
X0022595Y0076748D01*
X0022595Y0074613D01*
X0023662Y0073545D01*
X0023662Y0071370D02*
X0022595Y0070303D01*
X0022595Y0068168D01*
X0023662Y0067100D01*
X0024730Y0067100D01*
X0025797Y0068168D01*
X0025797Y0070303D01*
X0026865Y0071370D01*
X0027932Y0071370D01*
X0029000Y0070303D01*
X0029000Y0068168D01*
X0027932Y0067100D01*
X0029000Y0073545D02*
X0024730Y0077816D01*
X0029000Y0077816D02*
X0029000Y0073545D01*
X0023769Y0019106D02*
X0023769Y0014435D01*
X0021433Y0012100D01*
X0019098Y0014435D01*
X0019098Y0019106D01*
X0016771Y0017938D02*
X0015603Y0019106D01*
X0013268Y0019106D01*
X0012100Y0017938D01*
X0012100Y0013268D01*
X0013268Y0012100D01*
X0015603Y0012100D01*
X0016771Y0013268D01*
X0026096Y0015603D02*
X0030767Y0015603D01*
X0033094Y0016771D02*
X0033094Y0017938D01*
X0034262Y0019106D01*
X0036597Y0019106D01*
X0037765Y0017938D01*
X0040092Y0019106D02*
X0040092Y0012100D01*
X0044763Y0012100D01*
X0047090Y0013268D02*
X0048258Y0012100D01*
X0050593Y0012100D01*
X0051761Y0013268D01*
X0051761Y0017938D01*
X0050593Y0019106D01*
X0048258Y0019106D01*
X0047090Y0017938D01*
X0047090Y0013268D01*
X0049425Y0014435D02*
X0051761Y0012100D01*
X0054088Y0013268D02*
X0055255Y0012100D01*
X0057591Y0012100D01*
X0058758Y0013268D01*
X0058758Y0019106D01*
X0061086Y0019106D02*
X0061086Y0012100D01*
X0065756Y0012100D01*
X0063421Y0015603D02*
X0061086Y0015603D01*
X0061086Y0019106D02*
X0065756Y0019106D01*
X0068084Y0019106D02*
X0068084Y0012100D01*
X0072754Y0012100D02*
X0068084Y0019106D01*
X0072754Y0019106D02*
X0072754Y0012100D01*
X0075082Y0013268D02*
X0076249Y0012100D01*
X0078585Y0012100D01*
X0079752Y0013268D01*
X0082080Y0012100D02*
X0086750Y0012100D01*
X0084415Y0015603D02*
X0082080Y0015603D01*
X0079752Y0017938D02*
X0078585Y0019106D01*
X0076249Y0019106D01*
X0075082Y0017938D01*
X0075082Y0013268D01*
X0082080Y0012100D02*
X0082080Y0019106D01*
X0086750Y0019106D01*
X0089078Y0019106D02*
X0089078Y0012100D01*
X0089078Y0014435D02*
X0092581Y0014435D01*
X0093748Y0015603D01*
X0093748Y0017938D01*
X0092581Y0019106D01*
X0089078Y0019106D01*
X0091413Y0014435D02*
X0093748Y0012100D01*
X0123662Y0067100D02*
X0124730Y0067100D01*
X0125797Y0068168D01*
X0125797Y0070303D01*
X0126865Y0071370D01*
X0127932Y0071370D01*
X0129000Y0070303D01*
X0129000Y0068168D01*
X0127932Y0067100D01*
X0123662Y0067100D02*
X0122595Y0068168D01*
X0122595Y0070303D01*
X0123662Y0071370D01*
X0124730Y0073545D02*
X0122595Y0075681D01*
X0129000Y0075681D01*
X0129000Y0077816D02*
X0129000Y0073545D01*
X0054088Y0019106D02*
X0054088Y0013268D01*
X0044763Y0019106D02*
X0040092Y0019106D01*
X0040092Y0015603D02*
X0042427Y0015603D01*
X0037765Y0014435D02*
X0037765Y0013268D01*
X0036597Y0012100D01*
X0034262Y0012100D01*
X0033094Y0013268D01*
X0034262Y0015603D02*
X0033094Y0016771D01*
X0034262Y0015603D02*
X0036597Y0015603D01*
X0037765Y0014435D01*
X0163346Y0207372D02*
X0167750Y0207372D01*
X0166282Y0207372D02*
X0163346Y0210308D01*
X0163346Y0211976D02*
X0163346Y0214178D01*
X0164080Y0214912D01*
X0164814Y0214912D01*
X0165548Y0214178D01*
X0165548Y0211976D01*
X0167750Y0211976D02*
X0163346Y0211976D01*
X0165548Y0214178D02*
X0166282Y0214912D01*
X0167016Y0214912D01*
X0167750Y0214178D01*
X0167750Y0211976D01*
X0167750Y0210308D02*
X0165548Y0208106D01*
X0168484Y0216580D02*
X0168484Y0219516D01*
X0167750Y0222652D02*
X0163346Y0222652D01*
X0163346Y0221184D02*
X0163346Y0224120D01*
X0163346Y0225788D02*
X0167016Y0225788D01*
X0167750Y0226522D01*
X0167750Y0227990D01*
X0167016Y0228724D01*
X0163346Y0228724D01*
X0163346Y0230392D02*
X0167750Y0233328D01*
X0163346Y0233328D01*
X0163346Y0234996D02*
X0167750Y0234996D01*
X0167750Y0237932D01*
X0165548Y0236464D02*
X0165548Y0234996D01*
X0163346Y0234996D02*
X0163346Y0237932D01*
X0163346Y0230392D02*
X0167750Y0230392D01*
D13*
X0096378Y0231000D02*
X0096378Y0231250D01*
X0096127Y0231501D01*
X0095377Y0231501D01*
X0095377Y0231000D01*
X0095627Y0230750D01*
X0096127Y0230750D01*
X0096378Y0231000D01*
X0095877Y0232001D02*
X0095377Y0231501D01*
X0094904Y0231501D02*
X0094654Y0231250D01*
X0093903Y0231250D01*
X0093903Y0230750D02*
X0093903Y0232251D01*
X0094654Y0232251D01*
X0094904Y0232001D01*
X0094904Y0231501D01*
X0094404Y0231250D02*
X0094904Y0230750D01*
X0095877Y0232001D02*
X0096378Y0232251D01*
X0089074Y0256350D02*
X0088573Y0256350D01*
X0088323Y0256600D01*
X0088323Y0256850D01*
X0088573Y0257101D01*
X0089074Y0257101D01*
X0089324Y0256850D01*
X0089324Y0256600D01*
X0089074Y0256350D01*
X0089074Y0257101D02*
X0089324Y0257351D01*
X0089324Y0257601D01*
X0089074Y0257851D01*
X0088573Y0257851D01*
X0088323Y0257601D01*
X0088323Y0257351D01*
X0088573Y0257101D01*
X0087851Y0257101D02*
X0087601Y0256850D01*
X0086850Y0256850D01*
X0086850Y0256350D02*
X0086850Y0257851D01*
X0087601Y0257851D01*
X0087851Y0257601D01*
X0087851Y0257101D01*
X0087350Y0256850D02*
X0087851Y0256350D01*
X0093903Y0260750D02*
X0093903Y0262251D01*
X0094654Y0262251D01*
X0094904Y0262001D01*
X0094904Y0261501D01*
X0094654Y0261250D01*
X0093903Y0261250D01*
X0094404Y0261250D02*
X0094904Y0260750D01*
X0095377Y0261000D02*
X0095627Y0260750D01*
X0096127Y0260750D01*
X0096378Y0261000D01*
X0096378Y0261501D01*
X0096127Y0261751D01*
X0095877Y0261751D01*
X0095377Y0261501D01*
X0095377Y0262251D01*
X0096378Y0262251D01*
X0089324Y0286350D02*
X0088323Y0286350D01*
X0088824Y0286350D02*
X0088824Y0287851D01*
X0088323Y0287351D01*
X0087851Y0287601D02*
X0087601Y0287851D01*
X0087100Y0287851D01*
X0086850Y0287601D01*
X0086850Y0286600D01*
X0087100Y0286350D01*
X0087601Y0286350D01*
X0087851Y0286600D01*
X0071127Y0132251D02*
X0070377Y0131501D01*
X0071378Y0131501D01*
X0071127Y0132251D02*
X0071127Y0130750D01*
X0069904Y0130750D02*
X0069404Y0131250D01*
X0069654Y0131250D02*
X0068903Y0131250D01*
X0068903Y0130750D02*
X0068903Y0132251D01*
X0069654Y0132251D01*
X0069904Y0132001D01*
X0069904Y0131501D01*
X0069654Y0131250D01*
X0069654Y0117251D02*
X0069154Y0117251D01*
X0068903Y0117001D01*
X0068903Y0116000D01*
X0069154Y0115750D01*
X0069654Y0115750D01*
X0069904Y0116000D01*
X0070377Y0116000D02*
X0070627Y0115750D01*
X0071127Y0115750D01*
X0071378Y0116000D01*
X0071378Y0116250D01*
X0071127Y0116501D01*
X0070877Y0116501D01*
X0071127Y0116501D02*
X0071378Y0116751D01*
X0071378Y0117001D01*
X0071127Y0117251D01*
X0070627Y0117251D01*
X0070377Y0117001D01*
X0069904Y0117001D02*
X0069654Y0117251D01*
X0069654Y0102251D02*
X0069154Y0102251D01*
X0068903Y0102001D01*
X0068903Y0101000D01*
X0069154Y0100750D01*
X0069654Y0100750D01*
X0069904Y0101000D01*
X0070377Y0100750D02*
X0071378Y0101751D01*
X0071378Y0102001D01*
X0071127Y0102251D01*
X0070627Y0102251D01*
X0070377Y0102001D01*
X0069904Y0102001D02*
X0069654Y0102251D01*
X0070377Y0100750D02*
X0071378Y0100750D01*
X0091850Y0092851D02*
X0092601Y0092851D01*
X0092851Y0092601D01*
X0092851Y0092101D01*
X0092601Y0091850D01*
X0091850Y0091850D01*
X0091850Y0091350D02*
X0091850Y0092851D01*
X0092350Y0091850D02*
X0092851Y0091350D01*
X0093323Y0091350D02*
X0094324Y0091350D01*
X0093824Y0091350D02*
X0093824Y0092851D01*
X0093323Y0092351D01*
X0093573Y0077851D02*
X0094074Y0077851D01*
X0094324Y0077601D01*
X0094324Y0077351D01*
X0094074Y0077101D01*
X0094324Y0076850D01*
X0094324Y0076600D01*
X0094074Y0076350D01*
X0093573Y0076350D01*
X0093323Y0076600D01*
X0092851Y0076350D02*
X0092350Y0076850D01*
X0092601Y0076850D02*
X0091850Y0076850D01*
X0091850Y0076350D02*
X0091850Y0077851D01*
X0092601Y0077851D01*
X0092851Y0077601D01*
X0092851Y0077101D01*
X0092601Y0076850D01*
X0093323Y0077601D02*
X0093573Y0077851D01*
X0093824Y0077101D02*
X0094074Y0077101D01*
X0046378Y0130750D02*
X0045377Y0130750D01*
X0046378Y0131751D01*
X0046378Y0132001D01*
X0046127Y0132251D01*
X0045627Y0132251D01*
X0045377Y0132001D01*
X0044904Y0132001D02*
X0044654Y0132251D01*
X0043903Y0132251D01*
X0043903Y0130750D01*
X0043903Y0131250D02*
X0044654Y0131250D01*
X0044904Y0131501D01*
X0044904Y0132001D01*
X0044404Y0131250D02*
X0044904Y0130750D01*
D14*
X0028100Y0203300D02*
X0065100Y0203300D01*
X0065100Y0206800D01*
X0063050Y0206800D01*
X0063050Y0236800D01*
X0065100Y0236800D01*
X0065100Y0240300D01*
X0028100Y0240300D01*
X0028100Y0203300D01*
X0123500Y0203300D02*
X0123500Y0206800D01*
X0125550Y0206800D01*
X0125550Y0236800D01*
X0123500Y0236800D01*
X0123500Y0240300D01*
X0160500Y0240300D01*
X0160500Y0203300D01*
X0123500Y0203300D01*
D15*
X0129300Y0256800D02*
X0134300Y0256800D01*
X0136800Y0259300D01*
X0139300Y0256800D01*
X0144300Y0256800D01*
X0146800Y0259300D01*
X0149300Y0256800D01*
X0154300Y0256800D01*
X0156800Y0259300D01*
X0159300Y0256800D01*
X0164300Y0256800D01*
X0166800Y0259300D01*
X0166800Y0264300D01*
X0164300Y0266800D01*
X0159300Y0266800D01*
X0156800Y0264300D01*
X0154300Y0266800D01*
X0149300Y0266800D01*
X0146800Y0264300D01*
X0144300Y0266800D01*
X0139300Y0266800D01*
X0136800Y0264300D01*
X0134300Y0266800D01*
X0129300Y0266800D01*
X0126800Y0264300D01*
X0126800Y0259300D01*
X0129300Y0256800D01*
X0160800Y0183800D02*
X0161800Y0183800D01*
X0161800Y0159800D01*
X0160800Y0159800D01*
X0151800Y0106800D02*
X0146800Y0106800D01*
X0151800Y0106800D02*
X0151800Y0066800D01*
X0146800Y0066800D01*
X0136800Y0066800D02*
X0131800Y0066800D01*
X0131800Y0106800D01*
X0136800Y0106800D01*
X0105800Y0103300D02*
X0105800Y0130300D01*
X0105797Y0130519D01*
X0105789Y0130738D01*
X0105776Y0130957D01*
X0105757Y0131175D01*
X0105733Y0131393D01*
X0105704Y0131610D01*
X0105670Y0131827D01*
X0105630Y0132042D01*
X0105585Y0132257D01*
X0105534Y0132470D01*
X0105479Y0132682D01*
X0105418Y0132893D01*
X0105353Y0133102D01*
X0105282Y0133309D01*
X0105206Y0133515D01*
X0105125Y0133719D01*
X0105040Y0133921D01*
X0104949Y0134120D01*
X0104854Y0134317D01*
X0104753Y0134512D01*
X0104648Y0134705D01*
X0104539Y0134895D01*
X0104425Y0135082D01*
X0104306Y0135266D01*
X0104183Y0135447D01*
X0104055Y0135625D01*
X0103923Y0135801D01*
X0103787Y0135972D01*
X0103647Y0136141D01*
X0103503Y0136306D01*
X0103355Y0136467D01*
X0103203Y0136625D01*
X0103047Y0136779D01*
X0102887Y0136929D01*
X0102724Y0137076D01*
X0102557Y0137218D01*
X0102387Y0137356D01*
X0102213Y0137490D01*
X0102037Y0137620D01*
X0101857Y0137745D01*
X0101674Y0137866D01*
X0101488Y0137982D01*
X0101300Y0138094D01*
X0101109Y0138201D01*
X0100915Y0138304D01*
X0100719Y0138402D01*
X0100521Y0138495D01*
X0100320Y0138583D01*
X0100117Y0138666D01*
X0099912Y0138745D01*
X0099706Y0138818D01*
X0099498Y0138886D01*
X0099288Y0138949D01*
X0099076Y0139007D01*
X0098864Y0139060D01*
X0098650Y0139108D01*
X0098435Y0139150D01*
X0098219Y0139187D01*
X0098002Y0139219D01*
X0097784Y0139246D01*
X0097566Y0139267D01*
X0097348Y0139283D01*
X0097129Y0139294D01*
X0096910Y0139299D01*
X0096690Y0139299D01*
X0096471Y0139294D01*
X0096252Y0139283D01*
X0096034Y0139267D01*
X0095816Y0139246D01*
X0095598Y0139219D01*
X0095381Y0139187D01*
X0095165Y0139150D01*
X0094950Y0139108D01*
X0094736Y0139060D01*
X0094524Y0139007D01*
X0094312Y0138949D01*
X0094102Y0138886D01*
X0093894Y0138818D01*
X0093688Y0138745D01*
X0093483Y0138666D01*
X0093280Y0138583D01*
X0093079Y0138495D01*
X0092881Y0138402D01*
X0092685Y0138304D01*
X0092491Y0138201D01*
X0092300Y0138094D01*
X0092112Y0137982D01*
X0091926Y0137866D01*
X0091743Y0137745D01*
X0091563Y0137620D01*
X0091387Y0137490D01*
X0091213Y0137356D01*
X0091043Y0137218D01*
X0090876Y0137076D01*
X0090713Y0136929D01*
X0090553Y0136779D01*
X0090397Y0136625D01*
X0090245Y0136467D01*
X0090097Y0136306D01*
X0089953Y0136141D01*
X0089813Y0135972D01*
X0089677Y0135801D01*
X0089545Y0135625D01*
X0089417Y0135447D01*
X0089294Y0135266D01*
X0089175Y0135082D01*
X0089061Y0134895D01*
X0088952Y0134705D01*
X0088847Y0134512D01*
X0088746Y0134317D01*
X0088651Y0134120D01*
X0088560Y0133921D01*
X0088475Y0133719D01*
X0088394Y0133515D01*
X0088318Y0133309D01*
X0088247Y0133102D01*
X0088182Y0132893D01*
X0088121Y0132682D01*
X0088066Y0132470D01*
X0088015Y0132257D01*
X0087970Y0132042D01*
X0087930Y0131827D01*
X0087896Y0131610D01*
X0087867Y0131393D01*
X0087843Y0131175D01*
X0087824Y0130957D01*
X0087811Y0130738D01*
X0087803Y0130519D01*
X0087800Y0130300D01*
X0087800Y0103300D01*
X0087803Y0103081D01*
X0087811Y0102862D01*
X0087824Y0102643D01*
X0087843Y0102425D01*
X0087867Y0102207D01*
X0087896Y0101990D01*
X0087930Y0101773D01*
X0087970Y0101558D01*
X0088015Y0101343D01*
X0088066Y0101130D01*
X0088121Y0100918D01*
X0088182Y0100707D01*
X0088247Y0100498D01*
X0088318Y0100291D01*
X0088394Y0100085D01*
X0088475Y0099881D01*
X0088560Y0099679D01*
X0088651Y0099480D01*
X0088746Y0099283D01*
X0088847Y0099088D01*
X0088952Y0098895D01*
X0089061Y0098705D01*
X0089175Y0098518D01*
X0089294Y0098334D01*
X0089417Y0098153D01*
X0089545Y0097975D01*
X0089677Y0097799D01*
X0089813Y0097628D01*
X0089953Y0097459D01*
X0090097Y0097294D01*
X0090245Y0097133D01*
X0090397Y0096975D01*
X0090553Y0096821D01*
X0090713Y0096671D01*
X0090876Y0096524D01*
X0091043Y0096382D01*
X0091213Y0096244D01*
X0091387Y0096110D01*
X0091563Y0095980D01*
X0091743Y0095855D01*
X0091926Y0095734D01*
X0092112Y0095618D01*
X0092300Y0095506D01*
X0092491Y0095399D01*
X0092685Y0095296D01*
X0092881Y0095198D01*
X0093079Y0095105D01*
X0093280Y0095017D01*
X0093483Y0094934D01*
X0093688Y0094855D01*
X0093894Y0094782D01*
X0094102Y0094714D01*
X0094312Y0094651D01*
X0094524Y0094593D01*
X0094736Y0094540D01*
X0094950Y0094492D01*
X0095165Y0094450D01*
X0095381Y0094413D01*
X0095598Y0094381D01*
X0095816Y0094354D01*
X0096034Y0094333D01*
X0096252Y0094317D01*
X0096471Y0094306D01*
X0096690Y0094301D01*
X0096910Y0094301D01*
X0097129Y0094306D01*
X0097348Y0094317D01*
X0097566Y0094333D01*
X0097784Y0094354D01*
X0098002Y0094381D01*
X0098219Y0094413D01*
X0098435Y0094450D01*
X0098650Y0094492D01*
X0098864Y0094540D01*
X0099076Y0094593D01*
X0099288Y0094651D01*
X0099498Y0094714D01*
X0099706Y0094782D01*
X0099912Y0094855D01*
X0100117Y0094934D01*
X0100320Y0095017D01*
X0100521Y0095105D01*
X0100719Y0095198D01*
X0100915Y0095296D01*
X0101109Y0095399D01*
X0101300Y0095506D01*
X0101488Y0095618D01*
X0101674Y0095734D01*
X0101857Y0095855D01*
X0102037Y0095980D01*
X0102213Y0096110D01*
X0102387Y0096244D01*
X0102557Y0096382D01*
X0102724Y0096524D01*
X0102887Y0096671D01*
X0103047Y0096821D01*
X0103203Y0096975D01*
X0103355Y0097133D01*
X0103503Y0097294D01*
X0103647Y0097459D01*
X0103787Y0097628D01*
X0103923Y0097799D01*
X0104055Y0097975D01*
X0104183Y0098153D01*
X0104306Y0098334D01*
X0104425Y0098518D01*
X0104539Y0098705D01*
X0104648Y0098895D01*
X0104753Y0099088D01*
X0104854Y0099283D01*
X0104949Y0099480D01*
X0105040Y0099679D01*
X0105125Y0099881D01*
X0105206Y0100085D01*
X0105282Y0100291D01*
X0105353Y0100498D01*
X0105418Y0100707D01*
X0105479Y0100918D01*
X0105534Y0101130D01*
X0105585Y0101343D01*
X0105630Y0101558D01*
X0105670Y0101773D01*
X0105704Y0101990D01*
X0105733Y0102207D01*
X0105757Y0102425D01*
X0105776Y0102643D01*
X0105789Y0102862D01*
X0105797Y0103081D01*
X0105800Y0103300D01*
X0127800Y0053800D02*
X0135847Y0053800D01*
X0143800Y0050300D02*
X0143800Y0033300D01*
X0135729Y0029800D02*
X0127800Y0029800D01*
X0119800Y0033300D02*
X0119800Y0050300D01*
X0124800Y0041800D02*
X0124802Y0041972D01*
X0124808Y0042143D01*
X0124819Y0042315D01*
X0124834Y0042486D01*
X0124853Y0042657D01*
X0124876Y0042827D01*
X0124903Y0042997D01*
X0124935Y0043166D01*
X0124970Y0043334D01*
X0125010Y0043501D01*
X0125054Y0043667D01*
X0125101Y0043832D01*
X0125153Y0043996D01*
X0125209Y0044158D01*
X0125269Y0044319D01*
X0125333Y0044479D01*
X0125401Y0044637D01*
X0125472Y0044793D01*
X0125547Y0044947D01*
X0125627Y0045100D01*
X0125709Y0045250D01*
X0125796Y0045399D01*
X0125886Y0045545D01*
X0125980Y0045689D01*
X0126077Y0045831D01*
X0126178Y0045970D01*
X0126282Y0046107D01*
X0126389Y0046241D01*
X0126500Y0046372D01*
X0126613Y0046501D01*
X0126730Y0046627D01*
X0126850Y0046750D01*
X0126973Y0046870D01*
X0127099Y0046987D01*
X0127228Y0047100D01*
X0127359Y0047211D01*
X0127493Y0047318D01*
X0127630Y0047422D01*
X0127769Y0047523D01*
X0127911Y0047620D01*
X0128055Y0047714D01*
X0128201Y0047804D01*
X0128350Y0047891D01*
X0128500Y0047973D01*
X0128653Y0048053D01*
X0128807Y0048128D01*
X0128963Y0048199D01*
X0129121Y0048267D01*
X0129281Y0048331D01*
X0129442Y0048391D01*
X0129604Y0048447D01*
X0129768Y0048499D01*
X0129933Y0048546D01*
X0130099Y0048590D01*
X0130266Y0048630D01*
X0130434Y0048665D01*
X0130603Y0048697D01*
X0130773Y0048724D01*
X0130943Y0048747D01*
X0131114Y0048766D01*
X0131285Y0048781D01*
X0131457Y0048792D01*
X0131628Y0048798D01*
X0131800Y0048800D01*
X0131972Y0048798D01*
X0132143Y0048792D01*
X0132315Y0048781D01*
X0132486Y0048766D01*
X0132657Y0048747D01*
X0132827Y0048724D01*
X0132997Y0048697D01*
X0133166Y0048665D01*
X0133334Y0048630D01*
X0133501Y0048590D01*
X0133667Y0048546D01*
X0133832Y0048499D01*
X0133996Y0048447D01*
X0134158Y0048391D01*
X0134319Y0048331D01*
X0134479Y0048267D01*
X0134637Y0048199D01*
X0134793Y0048128D01*
X0134947Y0048053D01*
X0135100Y0047973D01*
X0135250Y0047891D01*
X0135399Y0047804D01*
X0135545Y0047714D01*
X0135689Y0047620D01*
X0135831Y0047523D01*
X0135970Y0047422D01*
X0136107Y0047318D01*
X0136241Y0047211D01*
X0136372Y0047100D01*
X0136501Y0046987D01*
X0136627Y0046870D01*
X0136750Y0046750D01*
X0136870Y0046627D01*
X0136987Y0046501D01*
X0137100Y0046372D01*
X0137211Y0046241D01*
X0137318Y0046107D01*
X0137422Y0045970D01*
X0137523Y0045831D01*
X0137620Y0045689D01*
X0137714Y0045545D01*
X0137804Y0045399D01*
X0137891Y0045250D01*
X0137973Y0045100D01*
X0138053Y0044947D01*
X0138128Y0044793D01*
X0138199Y0044637D01*
X0138267Y0044479D01*
X0138331Y0044319D01*
X0138391Y0044158D01*
X0138447Y0043996D01*
X0138499Y0043832D01*
X0138546Y0043667D01*
X0138590Y0043501D01*
X0138630Y0043334D01*
X0138665Y0043166D01*
X0138697Y0042997D01*
X0138724Y0042827D01*
X0138747Y0042657D01*
X0138766Y0042486D01*
X0138781Y0042315D01*
X0138792Y0042143D01*
X0138798Y0041972D01*
X0138800Y0041800D01*
X0138798Y0041628D01*
X0138792Y0041457D01*
X0138781Y0041285D01*
X0138766Y0041114D01*
X0138747Y0040943D01*
X0138724Y0040773D01*
X0138697Y0040603D01*
X0138665Y0040434D01*
X0138630Y0040266D01*
X0138590Y0040099D01*
X0138546Y0039933D01*
X0138499Y0039768D01*
X0138447Y0039604D01*
X0138391Y0039442D01*
X0138331Y0039281D01*
X0138267Y0039121D01*
X0138199Y0038963D01*
X0138128Y0038807D01*
X0138053Y0038653D01*
X0137973Y0038500D01*
X0137891Y0038350D01*
X0137804Y0038201D01*
X0137714Y0038055D01*
X0137620Y0037911D01*
X0137523Y0037769D01*
X0137422Y0037630D01*
X0137318Y0037493D01*
X0137211Y0037359D01*
X0137100Y0037228D01*
X0136987Y0037099D01*
X0136870Y0036973D01*
X0136750Y0036850D01*
X0136627Y0036730D01*
X0136501Y0036613D01*
X0136372Y0036500D01*
X0136241Y0036389D01*
X0136107Y0036282D01*
X0135970Y0036178D01*
X0135831Y0036077D01*
X0135689Y0035980D01*
X0135545Y0035886D01*
X0135399Y0035796D01*
X0135250Y0035709D01*
X0135100Y0035627D01*
X0134947Y0035547D01*
X0134793Y0035472D01*
X0134637Y0035401D01*
X0134479Y0035333D01*
X0134319Y0035269D01*
X0134158Y0035209D01*
X0133996Y0035153D01*
X0133832Y0035101D01*
X0133667Y0035054D01*
X0133501Y0035010D01*
X0133334Y0034970D01*
X0133166Y0034935D01*
X0132997Y0034903D01*
X0132827Y0034876D01*
X0132657Y0034853D01*
X0132486Y0034834D01*
X0132315Y0034819D01*
X0132143Y0034808D01*
X0131972Y0034802D01*
X0131800Y0034800D01*
X0131628Y0034802D01*
X0131457Y0034808D01*
X0131285Y0034819D01*
X0131114Y0034834D01*
X0130943Y0034853D01*
X0130773Y0034876D01*
X0130603Y0034903D01*
X0130434Y0034935D01*
X0130266Y0034970D01*
X0130099Y0035010D01*
X0129933Y0035054D01*
X0129768Y0035101D01*
X0129604Y0035153D01*
X0129442Y0035209D01*
X0129281Y0035269D01*
X0129121Y0035333D01*
X0128963Y0035401D01*
X0128807Y0035472D01*
X0128653Y0035547D01*
X0128500Y0035627D01*
X0128350Y0035709D01*
X0128201Y0035796D01*
X0128055Y0035886D01*
X0127911Y0035980D01*
X0127769Y0036077D01*
X0127630Y0036178D01*
X0127493Y0036282D01*
X0127359Y0036389D01*
X0127228Y0036500D01*
X0127099Y0036613D01*
X0126973Y0036730D01*
X0126850Y0036850D01*
X0126730Y0036973D01*
X0126613Y0037099D01*
X0126500Y0037228D01*
X0126389Y0037359D01*
X0126282Y0037493D01*
X0126178Y0037630D01*
X0126077Y0037769D01*
X0125980Y0037911D01*
X0125886Y0038055D01*
X0125796Y0038201D01*
X0125709Y0038350D01*
X0125627Y0038500D01*
X0125547Y0038653D01*
X0125472Y0038807D01*
X0125401Y0038963D01*
X0125333Y0039121D01*
X0125269Y0039281D01*
X0125209Y0039442D01*
X0125153Y0039604D01*
X0125101Y0039768D01*
X0125054Y0039933D01*
X0125010Y0040099D01*
X0124970Y0040266D01*
X0124935Y0040434D01*
X0124903Y0040603D01*
X0124876Y0040773D01*
X0124853Y0040943D01*
X0124834Y0041114D01*
X0124819Y0041285D01*
X0124808Y0041457D01*
X0124802Y0041628D01*
X0124800Y0041800D01*
X0068800Y0033300D02*
X0068800Y0050300D01*
X0060847Y0053800D02*
X0052800Y0053800D01*
X0044800Y0050300D02*
X0044800Y0033300D01*
X0052800Y0029800D02*
X0060729Y0029800D01*
X0049800Y0041800D02*
X0049802Y0041972D01*
X0049808Y0042143D01*
X0049819Y0042315D01*
X0049834Y0042486D01*
X0049853Y0042657D01*
X0049876Y0042827D01*
X0049903Y0042997D01*
X0049935Y0043166D01*
X0049970Y0043334D01*
X0050010Y0043501D01*
X0050054Y0043667D01*
X0050101Y0043832D01*
X0050153Y0043996D01*
X0050209Y0044158D01*
X0050269Y0044319D01*
X0050333Y0044479D01*
X0050401Y0044637D01*
X0050472Y0044793D01*
X0050547Y0044947D01*
X0050627Y0045100D01*
X0050709Y0045250D01*
X0050796Y0045399D01*
X0050886Y0045545D01*
X0050980Y0045689D01*
X0051077Y0045831D01*
X0051178Y0045970D01*
X0051282Y0046107D01*
X0051389Y0046241D01*
X0051500Y0046372D01*
X0051613Y0046501D01*
X0051730Y0046627D01*
X0051850Y0046750D01*
X0051973Y0046870D01*
X0052099Y0046987D01*
X0052228Y0047100D01*
X0052359Y0047211D01*
X0052493Y0047318D01*
X0052630Y0047422D01*
X0052769Y0047523D01*
X0052911Y0047620D01*
X0053055Y0047714D01*
X0053201Y0047804D01*
X0053350Y0047891D01*
X0053500Y0047973D01*
X0053653Y0048053D01*
X0053807Y0048128D01*
X0053963Y0048199D01*
X0054121Y0048267D01*
X0054281Y0048331D01*
X0054442Y0048391D01*
X0054604Y0048447D01*
X0054768Y0048499D01*
X0054933Y0048546D01*
X0055099Y0048590D01*
X0055266Y0048630D01*
X0055434Y0048665D01*
X0055603Y0048697D01*
X0055773Y0048724D01*
X0055943Y0048747D01*
X0056114Y0048766D01*
X0056285Y0048781D01*
X0056457Y0048792D01*
X0056628Y0048798D01*
X0056800Y0048800D01*
X0056972Y0048798D01*
X0057143Y0048792D01*
X0057315Y0048781D01*
X0057486Y0048766D01*
X0057657Y0048747D01*
X0057827Y0048724D01*
X0057997Y0048697D01*
X0058166Y0048665D01*
X0058334Y0048630D01*
X0058501Y0048590D01*
X0058667Y0048546D01*
X0058832Y0048499D01*
X0058996Y0048447D01*
X0059158Y0048391D01*
X0059319Y0048331D01*
X0059479Y0048267D01*
X0059637Y0048199D01*
X0059793Y0048128D01*
X0059947Y0048053D01*
X0060100Y0047973D01*
X0060250Y0047891D01*
X0060399Y0047804D01*
X0060545Y0047714D01*
X0060689Y0047620D01*
X0060831Y0047523D01*
X0060970Y0047422D01*
X0061107Y0047318D01*
X0061241Y0047211D01*
X0061372Y0047100D01*
X0061501Y0046987D01*
X0061627Y0046870D01*
X0061750Y0046750D01*
X0061870Y0046627D01*
X0061987Y0046501D01*
X0062100Y0046372D01*
X0062211Y0046241D01*
X0062318Y0046107D01*
X0062422Y0045970D01*
X0062523Y0045831D01*
X0062620Y0045689D01*
X0062714Y0045545D01*
X0062804Y0045399D01*
X0062891Y0045250D01*
X0062973Y0045100D01*
X0063053Y0044947D01*
X0063128Y0044793D01*
X0063199Y0044637D01*
X0063267Y0044479D01*
X0063331Y0044319D01*
X0063391Y0044158D01*
X0063447Y0043996D01*
X0063499Y0043832D01*
X0063546Y0043667D01*
X0063590Y0043501D01*
X0063630Y0043334D01*
X0063665Y0043166D01*
X0063697Y0042997D01*
X0063724Y0042827D01*
X0063747Y0042657D01*
X0063766Y0042486D01*
X0063781Y0042315D01*
X0063792Y0042143D01*
X0063798Y0041972D01*
X0063800Y0041800D01*
X0063798Y0041628D01*
X0063792Y0041457D01*
X0063781Y0041285D01*
X0063766Y0041114D01*
X0063747Y0040943D01*
X0063724Y0040773D01*
X0063697Y0040603D01*
X0063665Y0040434D01*
X0063630Y0040266D01*
X0063590Y0040099D01*
X0063546Y0039933D01*
X0063499Y0039768D01*
X0063447Y0039604D01*
X0063391Y0039442D01*
X0063331Y0039281D01*
X0063267Y0039121D01*
X0063199Y0038963D01*
X0063128Y0038807D01*
X0063053Y0038653D01*
X0062973Y0038500D01*
X0062891Y0038350D01*
X0062804Y0038201D01*
X0062714Y0038055D01*
X0062620Y0037911D01*
X0062523Y0037769D01*
X0062422Y0037630D01*
X0062318Y0037493D01*
X0062211Y0037359D01*
X0062100Y0037228D01*
X0061987Y0037099D01*
X0061870Y0036973D01*
X0061750Y0036850D01*
X0061627Y0036730D01*
X0061501Y0036613D01*
X0061372Y0036500D01*
X0061241Y0036389D01*
X0061107Y0036282D01*
X0060970Y0036178D01*
X0060831Y0036077D01*
X0060689Y0035980D01*
X0060545Y0035886D01*
X0060399Y0035796D01*
X0060250Y0035709D01*
X0060100Y0035627D01*
X0059947Y0035547D01*
X0059793Y0035472D01*
X0059637Y0035401D01*
X0059479Y0035333D01*
X0059319Y0035269D01*
X0059158Y0035209D01*
X0058996Y0035153D01*
X0058832Y0035101D01*
X0058667Y0035054D01*
X0058501Y0035010D01*
X0058334Y0034970D01*
X0058166Y0034935D01*
X0057997Y0034903D01*
X0057827Y0034876D01*
X0057657Y0034853D01*
X0057486Y0034834D01*
X0057315Y0034819D01*
X0057143Y0034808D01*
X0056972Y0034802D01*
X0056800Y0034800D01*
X0056628Y0034802D01*
X0056457Y0034808D01*
X0056285Y0034819D01*
X0056114Y0034834D01*
X0055943Y0034853D01*
X0055773Y0034876D01*
X0055603Y0034903D01*
X0055434Y0034935D01*
X0055266Y0034970D01*
X0055099Y0035010D01*
X0054933Y0035054D01*
X0054768Y0035101D01*
X0054604Y0035153D01*
X0054442Y0035209D01*
X0054281Y0035269D01*
X0054121Y0035333D01*
X0053963Y0035401D01*
X0053807Y0035472D01*
X0053653Y0035547D01*
X0053500Y0035627D01*
X0053350Y0035709D01*
X0053201Y0035796D01*
X0053055Y0035886D01*
X0052911Y0035980D01*
X0052769Y0036077D01*
X0052630Y0036178D01*
X0052493Y0036282D01*
X0052359Y0036389D01*
X0052228Y0036500D01*
X0052099Y0036613D01*
X0051973Y0036730D01*
X0051850Y0036850D01*
X0051730Y0036973D01*
X0051613Y0037099D01*
X0051500Y0037228D01*
X0051389Y0037359D01*
X0051282Y0037493D01*
X0051178Y0037630D01*
X0051077Y0037769D01*
X0050980Y0037911D01*
X0050886Y0038055D01*
X0050796Y0038201D01*
X0050709Y0038350D01*
X0050627Y0038500D01*
X0050547Y0038653D01*
X0050472Y0038807D01*
X0050401Y0038963D01*
X0050333Y0039121D01*
X0050269Y0039281D01*
X0050209Y0039442D01*
X0050153Y0039604D01*
X0050101Y0039768D01*
X0050054Y0039933D01*
X0050010Y0040099D01*
X0049970Y0040266D01*
X0049935Y0040434D01*
X0049903Y0040603D01*
X0049876Y0040773D01*
X0049853Y0040943D01*
X0049834Y0041114D01*
X0049819Y0041285D01*
X0049808Y0041457D01*
X0049802Y0041628D01*
X0049800Y0041800D01*
X0051800Y0066800D02*
X0046800Y0066800D01*
X0051800Y0066800D02*
X0051800Y0106800D01*
X0046800Y0106800D01*
X0036800Y0106800D02*
X0031800Y0106800D01*
X0031800Y0066800D01*
X0036800Y0066800D01*
X0022800Y0159800D02*
X0021800Y0159800D01*
X0021800Y0166800D01*
X0021940Y0166802D01*
X0022080Y0166808D01*
X0022220Y0166818D01*
X0022360Y0166831D01*
X0022499Y0166849D01*
X0022638Y0166871D01*
X0022775Y0166896D01*
X0022913Y0166925D01*
X0023049Y0166958D01*
X0023184Y0166995D01*
X0023318Y0167036D01*
X0023451Y0167081D01*
X0023583Y0167129D01*
X0023713Y0167181D01*
X0023842Y0167236D01*
X0023969Y0167295D01*
X0024095Y0167358D01*
X0024219Y0167424D01*
X0024340Y0167493D01*
X0024460Y0167566D01*
X0024578Y0167643D01*
X0024693Y0167722D01*
X0024807Y0167805D01*
X0024917Y0167891D01*
X0025026Y0167980D01*
X0025132Y0168072D01*
X0025235Y0168167D01*
X0025336Y0168264D01*
X0025433Y0168365D01*
X0025528Y0168468D01*
X0025620Y0168574D01*
X0025709Y0168683D01*
X0025795Y0168793D01*
X0025878Y0168907D01*
X0025957Y0169022D01*
X0026034Y0169140D01*
X0026107Y0169260D01*
X0026176Y0169381D01*
X0026242Y0169505D01*
X0026305Y0169631D01*
X0026364Y0169758D01*
X0026419Y0169887D01*
X0026471Y0170017D01*
X0026519Y0170149D01*
X0026564Y0170282D01*
X0026605Y0170416D01*
X0026642Y0170551D01*
X0026675Y0170687D01*
X0026704Y0170825D01*
X0026729Y0170962D01*
X0026751Y0171101D01*
X0026769Y0171240D01*
X0026782Y0171380D01*
X0026792Y0171520D01*
X0026798Y0171660D01*
X0026800Y0171800D01*
X0026798Y0171940D01*
X0026792Y0172080D01*
X0026782Y0172220D01*
X0026769Y0172360D01*
X0026751Y0172499D01*
X0026729Y0172638D01*
X0026704Y0172775D01*
X0026675Y0172913D01*
X0026642Y0173049D01*
X0026605Y0173184D01*
X0026564Y0173318D01*
X0026519Y0173451D01*
X0026471Y0173583D01*
X0026419Y0173713D01*
X0026364Y0173842D01*
X0026305Y0173969D01*
X0026242Y0174095D01*
X0026176Y0174219D01*
X0026107Y0174340D01*
X0026034Y0174460D01*
X0025957Y0174578D01*
X0025878Y0174693D01*
X0025795Y0174807D01*
X0025709Y0174917D01*
X0025620Y0175026D01*
X0025528Y0175132D01*
X0025433Y0175235D01*
X0025336Y0175336D01*
X0025235Y0175433D01*
X0025132Y0175528D01*
X0025026Y0175620D01*
X0024917Y0175709D01*
X0024807Y0175795D01*
X0024693Y0175878D01*
X0024578Y0175957D01*
X0024460Y0176034D01*
X0024340Y0176107D01*
X0024219Y0176176D01*
X0024095Y0176242D01*
X0023969Y0176305D01*
X0023842Y0176364D01*
X0023713Y0176419D01*
X0023583Y0176471D01*
X0023451Y0176519D01*
X0023318Y0176564D01*
X0023184Y0176605D01*
X0023049Y0176642D01*
X0022913Y0176675D01*
X0022775Y0176704D01*
X0022638Y0176729D01*
X0022499Y0176751D01*
X0022360Y0176769D01*
X0022220Y0176782D01*
X0022080Y0176792D01*
X0021940Y0176798D01*
X0021800Y0176800D01*
X0021800Y0183800D01*
X0022800Y0183800D01*
X0029300Y0266800D02*
X0034300Y0266800D01*
X0036800Y0269300D01*
X0039300Y0266800D01*
X0044300Y0266800D01*
X0046800Y0269300D01*
X0049300Y0266800D01*
X0054300Y0266800D01*
X0056800Y0269300D01*
X0059300Y0266800D01*
X0064300Y0266800D01*
X0066800Y0269300D01*
X0066800Y0274300D01*
X0064300Y0276800D01*
X0059300Y0276800D01*
X0056800Y0274300D01*
X0054300Y0276800D01*
X0049300Y0276800D01*
X0046800Y0274300D01*
X0044300Y0276800D01*
X0039300Y0276800D01*
X0036800Y0274300D01*
X0034300Y0276800D01*
X0029300Y0276800D01*
X0026800Y0274300D01*
X0026800Y0269300D01*
X0029300Y0266800D01*
D16*
X0029002Y0279250D02*
X0027501Y0279250D01*
X0026750Y0280001D01*
X0027501Y0281502D02*
X0029002Y0281502D01*
X0029753Y0280751D01*
X0029753Y0280001D01*
X0029002Y0279250D01*
X0031354Y0279250D02*
X0032855Y0279250D01*
X0032105Y0279250D02*
X0032105Y0283754D01*
X0032855Y0283754D02*
X0031354Y0283754D01*
X0029753Y0283003D02*
X0029002Y0283754D01*
X0027501Y0283754D01*
X0026750Y0283003D01*
X0026750Y0282253D01*
X0027501Y0281502D01*
X0034423Y0283003D02*
X0034423Y0280001D01*
X0035174Y0279250D01*
X0036675Y0279250D01*
X0037426Y0280001D01*
X0037426Y0281502D01*
X0035924Y0281502D01*
X0034423Y0283003D02*
X0035174Y0283754D01*
X0036675Y0283754D01*
X0037426Y0283003D01*
X0039027Y0283754D02*
X0039027Y0279250D01*
X0042030Y0279250D02*
X0039027Y0283754D01*
X0042030Y0283754D02*
X0042030Y0279250D01*
X0043631Y0279250D02*
X0043631Y0282253D01*
X0045132Y0283754D01*
X0046634Y0282253D01*
X0046634Y0279250D01*
X0048235Y0279250D02*
X0048235Y0283754D01*
X0046634Y0281502D02*
X0043631Y0281502D01*
X0048235Y0279250D02*
X0051238Y0279250D01*
X0085546Y0225655D02*
X0090050Y0225655D01*
X0090050Y0224154D02*
X0090050Y0227156D01*
X0087047Y0224154D02*
X0085546Y0225655D01*
X0086297Y0222553D02*
X0085546Y0221802D01*
X0085546Y0219550D01*
X0090050Y0219550D01*
X0090050Y0221802D01*
X0089299Y0222553D01*
X0086297Y0222553D01*
X0126750Y0269250D02*
X0126750Y0273754D01*
X0129002Y0273754D01*
X0129753Y0273003D01*
X0129753Y0271502D01*
X0129002Y0270751D01*
X0126750Y0270751D01*
X0131354Y0270001D02*
X0132105Y0269250D01*
X0133606Y0269250D01*
X0134356Y0270001D01*
X0134356Y0273003D01*
X0133606Y0273754D01*
X0132105Y0273754D01*
X0131354Y0273003D01*
X0131354Y0270001D01*
X0135958Y0269250D02*
X0137459Y0270751D01*
X0138960Y0269250D01*
X0138960Y0273754D01*
X0140562Y0273754D02*
X0140562Y0269250D01*
X0143564Y0269250D01*
X0145166Y0269250D02*
X0145166Y0273754D01*
X0147418Y0273754D01*
X0148168Y0273003D01*
X0148168Y0271502D01*
X0147418Y0270751D01*
X0145166Y0270751D01*
X0146667Y0270751D02*
X0148168Y0269250D01*
X0143564Y0273754D02*
X0140562Y0273754D01*
X0140562Y0271502D02*
X0142063Y0271502D01*
X0135958Y0273754D02*
X0135958Y0269250D01*
X0086050Y0104656D02*
X0086050Y0101654D01*
X0086050Y0103155D02*
X0081546Y0103155D01*
X0083047Y0101654D01*
X0082297Y0100053D02*
X0083798Y0098551D01*
X0086050Y0098551D01*
X0083798Y0098551D02*
X0082297Y0097050D01*
X0081546Y0097050D01*
X0081546Y0100053D02*
X0082297Y0100053D01*
X0075799Y0050449D02*
X0072797Y0050449D01*
X0072046Y0049698D01*
X0072046Y0047446D01*
X0076550Y0047446D01*
X0076550Y0049698D01*
X0075799Y0050449D01*
X0076550Y0045845D02*
X0075049Y0044343D01*
X0075049Y0045094D02*
X0075049Y0042842D01*
X0076550Y0042842D02*
X0072046Y0042842D01*
X0072046Y0045094D01*
X0072797Y0045845D01*
X0074298Y0045845D01*
X0075049Y0045094D01*
X0075799Y0041241D02*
X0072797Y0041241D01*
X0072046Y0040490D01*
X0072046Y0038989D01*
X0072797Y0038238D01*
X0075799Y0038238D01*
X0076550Y0038989D01*
X0076550Y0040490D01*
X0075799Y0041241D01*
X0075799Y0036637D02*
X0076550Y0035886D01*
X0076550Y0034385D01*
X0075799Y0033634D01*
X0072797Y0033634D01*
X0072046Y0034385D01*
X0072046Y0035886D01*
X0072797Y0036637D01*
X0072046Y0032033D02*
X0072046Y0029030D01*
X0076550Y0029030D01*
X0076550Y0032033D01*
X0074298Y0030532D02*
X0074298Y0029030D01*
X0074298Y0027429D02*
X0075049Y0026678D01*
X0075049Y0024426D01*
X0076550Y0024426D02*
X0072046Y0024426D01*
X0072046Y0026678D01*
X0072797Y0027429D01*
X0074298Y0027429D01*
X0075049Y0025928D02*
X0076550Y0027429D01*
X0147046Y0029781D02*
X0147797Y0029030D01*
X0150799Y0029030D01*
X0151550Y0029781D01*
X0151550Y0031282D01*
X0150799Y0032033D01*
X0151550Y0033634D02*
X0151550Y0036637D01*
X0151550Y0038238D02*
X0151550Y0041241D01*
X0151550Y0042842D02*
X0148547Y0042842D01*
X0147046Y0044343D01*
X0148547Y0045845D01*
X0151550Y0045845D01*
X0151550Y0047446D02*
X0147046Y0047446D01*
X0147046Y0049698D01*
X0147797Y0050449D01*
X0149298Y0050449D01*
X0150049Y0049698D01*
X0150049Y0047446D01*
X0150049Y0048947D02*
X0151550Y0050449D01*
X0149298Y0045845D02*
X0149298Y0042842D01*
X0149298Y0039739D02*
X0149298Y0038238D01*
X0147046Y0038238D02*
X0151550Y0038238D01*
X0151550Y0033634D02*
X0147046Y0033634D01*
X0147797Y0032033D02*
X0147046Y0031282D01*
X0147046Y0029781D01*
X0147046Y0038238D02*
X0147046Y0041241D01*
D17*
X0035578Y0171900D02*
X0034110Y0171900D01*
X0034844Y0171900D02*
X0034844Y0174102D01*
X0034110Y0173368D01*
X0033368Y0174102D02*
X0033368Y0172267D01*
X0033001Y0171900D01*
X0032267Y0171900D01*
X0031900Y0172267D01*
X0031900Y0174102D01*
M02*
